<?xml version="1.0" encoding="UTF-8" standalone="no"?>
<!DOCTYPE svg PUBLIC "-//W3C//DTD SVG 1.1//EN"
 "http://www.w3.org/Graphics/SVG/1.1/DTD/svg11.dtd">
<!-- Generated by graphviz version 2.38.0 (20140413.2041)
 -->
<!-- Title: controllers_diagram Pages: 1 -->
<svg width="638pt" height="534pt"
 viewBox="0.00 0.00 637.65 534.00" xmlns="http://www.w3.org/2000/svg" xmlns:xlink="http://www.w3.org/1999/xlink">
<g id="graph0" class="graph" transform="scale(1 1) rotate(0) translate(208.104 343.5)">
<title>controllers_diagram</title>
<polygon fill="white" stroke="none" points="-208.104,190.5 -208.104,-343.5 429.545,-343.5 429.545,190.5 -208.104,190.5"/>
<!-- _diagram_info -->
<g id="node1" class="node"><title>_diagram_info</title>
<text text-anchor="start" x="93.3123" y="127.9" font-family="Times,serif" font-size="13.00">Controllers diagram</text>
<text text-anchor="start" x="93.3123" y="140.9" font-family="Times,serif" font-size="13.00">Date: May 05 2015 &#45; 20:47</text>
<text text-anchor="start" x="93.3123" y="153.9" font-family="Times,serif" font-size="13.00">Migration version: 20150502162746</text>
<text text-anchor="start" x="93.3123" y="166.9" font-family="Times,serif" font-size="13.00">Generated by RailRoady 1.3.0</text>
<text text-anchor="start" x="93.3123" y="179.9" font-family="Times,serif" font-size="13.00">http://railroady.prestonlee.com</text>
</g>
<!-- ApplicationController -->
<g id="node2" class="node"><title>ApplicationController</title>
<path fill="none" stroke="black" d="M199.034,-188C199.034,-188 372.966,-188 372.966,-188 378.966,-188 384.966,-194 384.966,-200 384.966,-200 384.966,-266 384.966,-266 384.966,-272 378.966,-278 372.966,-278 372.966,-278 199.034,-278 199.034,-278 193.034,-278 187.034,-272 187.034,-266 187.034,-266 187.034,-200 187.034,-200 187.034,-194 193.034,-188 199.034,-188"/>
<text text-anchor="middle" x="286" y="-262.8" font-family="Times,serif" font-size="14.00">ApplicationController</text>
<polyline fill="none" stroke="black" points="187.034,-256 384.966,-256 "/>
<polyline fill="none" stroke="black" points="187.034,-232 384.966,-232 "/>
<text text-anchor="start" x="195.034" y="-216.8" font-family="Times,serif" font-size="14.00">configure_permitted_parameters</text>
<polyline fill="none" stroke="black" points="187.034,-210 384.966,-210 "/>
<text text-anchor="start" x="195.034" y="-194.8" font-family="Times,serif" font-size="14.00">_layout</text>
</g>
<!-- CardsController -->
<g id="node3" class="node"><title>CardsController</title>
<path fill="none" stroke="black" d="M-192.104,152C-192.104,152 -109.896,152 -109.896,152 -103.896,152 -97.8965,146 -97.8965,140 -97.8965,140 -97.8965,46 -97.8965,46 -97.8965,40 -103.896,34 -109.896,34 -109.896,34 -192.104,34 -192.104,34 -198.104,34 -204.104,40 -204.104,46 -204.104,46 -204.104,140 -204.104,140 -204.104,146 -198.104,152 -192.104,152"/>
<text text-anchor="middle" x="-151" y="49.2" font-family="Times,serif" font-size="14.00">CardsController</text>
<polyline fill="none" stroke="black" points="-204.104,56 -97.8965,56 "/>
<text text-anchor="start" x="-196.104" y="71.2" font-family="Times,serif" font-size="14.00">destroy</text>
<text text-anchor="start" x="-196.104" y="85.2" font-family="Times,serif" font-size="14.00">import</text>
<text text-anchor="start" x="-196.104" y="99.2" font-family="Times,serif" font-size="14.00">index</text>
<polyline fill="none" stroke="black" points="-204.104,106 -97.8965,106 "/>
<polyline fill="none" stroke="black" points="-204.104,130 -97.8965,130 "/>
<text text-anchor="start" x="-196.104" y="145.2" font-family="Times,serif" font-size="14.00">_layout</text>
</g>
<!-- CheckinsController -->
<g id="node4" class="node"><title>CheckinsController</title>
<path fill="none" stroke="black" d="M-55.8242,-137C-55.8242,-137 45.8242,-137 45.8242,-137 51.8242,-137 57.8242,-143 57.8242,-149 57.8242,-149 57.8242,-327 57.8242,-327 57.8242,-333 51.8242,-339 45.8242,-339 45.8242,-339 -55.8242,-339 -55.8242,-339 -61.8242,-339 -67.8242,-333 -67.8242,-327 -67.8242,-327 -67.8242,-149 -67.8242,-149 -67.8242,-143 -61.8242,-137 -55.8242,-137"/>
<text text-anchor="middle" x="-5" y="-323.8" font-family="Times,serif" font-size="14.00">CheckinsController</text>
<polyline fill="none" stroke="black" points="-67.8242,-317 57.8242,-317 "/>
<text text-anchor="start" x="-59.8242" y="-301.8" font-family="Times,serif" font-size="14.00">create</text>
<text text-anchor="start" x="-59.8242" y="-287.8" font-family="Times,serif" font-size="14.00">destroy</text>
<text text-anchor="start" x="-59.8242" y="-273.8" font-family="Times,serif" font-size="14.00">edit</text>
<text text-anchor="start" x="-59.8242" y="-259.8" font-family="Times,serif" font-size="14.00">index</text>
<text text-anchor="start" x="-59.8242" y="-245.8" font-family="Times,serif" font-size="14.00">new</text>
<text text-anchor="start" x="-59.8242" y="-231.8" font-family="Times,serif" font-size="14.00">show</text>
<text text-anchor="start" x="-59.8242" y="-217.8" font-family="Times,serif" font-size="14.00">update</text>
<polyline fill="none" stroke="black" points="-67.8242,-211 57.8242,-211 "/>
<polyline fill="none" stroke="black" points="-67.8242,-187 57.8242,-187 "/>
<text text-anchor="start" x="-59.8242" y="-171.8" font-family="Times,serif" font-size="14.00">_layout</text>
<text text-anchor="start" x="-59.8242" y="-157.8" font-family="Times,serif" font-size="14.00">checkin_params</text>
<text text-anchor="start" x="-59.8242" y="-143.8" font-family="Times,serif" font-size="14.00">set_checkin</text>
</g>
<!-- EventsController -->
<g id="node5" class="node"><title>EventsController</title>
<path fill="none" stroke="black" d="M97.1758,84C97.1758,84 184.824,84 184.824,84 190.824,84 196.824,78 196.824,72 196.824,72 196.824,-148 196.824,-148 196.824,-154 190.824,-160 184.824,-160 184.824,-160 97.1758,-160 97.1758,-160 91.1758,-160 85.1758,-154 85.1758,-148 85.1758,-148 85.1758,72 85.1758,72 85.1758,78 91.1758,84 97.1758,84"/>
<text text-anchor="middle" x="141" y="-144.8" font-family="Times,serif" font-size="14.00">EventsController</text>
<polyline fill="none" stroke="black" points="85.1758,-138 196.824,-138 "/>
<text text-anchor="start" x="93.1758" y="-122.8" font-family="Times,serif" font-size="14.00">check</text>
<text text-anchor="start" x="93.1758" y="-108.8" font-family="Times,serif" font-size="14.00">checkback</text>
<text text-anchor="start" x="93.1758" y="-94.8" font-family="Times,serif" font-size="14.00">checkin</text>
<text text-anchor="start" x="93.1758" y="-80.8" font-family="Times,serif" font-size="14.00">create</text>
<text text-anchor="start" x="93.1758" y="-66.8" font-family="Times,serif" font-size="14.00">destroy</text>
<text text-anchor="start" x="93.1758" y="-52.8" font-family="Times,serif" font-size="14.00">edit</text>
<text text-anchor="start" x="93.1758" y="-38.8" font-family="Times,serif" font-size="14.00">index</text>
<text text-anchor="start" x="93.1758" y="-24.8" font-family="Times,serif" font-size="14.00">new</text>
<text text-anchor="start" x="93.1758" y="-10.8" font-family="Times,serif" font-size="14.00">show</text>
<text text-anchor="start" x="93.1758" y="3.2" font-family="Times,serif" font-size="14.00">update</text>
<polyline fill="none" stroke="black" points="85.1758,10 196.824,10 "/>
<polyline fill="none" stroke="black" points="85.1758,34 196.824,34 "/>
<text text-anchor="start" x="93.1758" y="49.2" font-family="Times,serif" font-size="14.00">_layout</text>
<text text-anchor="start" x="93.1758" y="63.2" font-family="Times,serif" font-size="14.00">event_params</text>
<text text-anchor="start" x="93.1758" y="77.2" font-family="Times,serif" font-size="14.00">set_event</text>
</g>
<!-- PagesController -->
<g id="node6" class="node"><title>PagesController</title>
<path fill="none" stroke="black" d="M-192.104,-205C-192.104,-205 -109.896,-205 -109.896,-205 -103.896,-205 -97.8965,-211 -97.8965,-217 -97.8965,-217 -97.8965,-297 -97.8965,-297 -97.8965,-303 -103.896,-309 -109.896,-309 -109.896,-309 -192.104,-309 -192.104,-309 -198.104,-309 -204.104,-303 -204.104,-297 -204.104,-297 -204.104,-217 -204.104,-217 -204.104,-211 -198.104,-205 -192.104,-205"/>
<text text-anchor="middle" x="-151" y="-293.8" font-family="Times,serif" font-size="14.00">PagesController</text>
<polyline fill="none" stroke="black" points="-204.104,-287 -97.8965,-287 "/>
<text text-anchor="start" x="-196.104" y="-271.8" font-family="Times,serif" font-size="14.00">help</text>
<text text-anchor="start" x="-196.104" y="-257.8" font-family="Times,serif" font-size="14.00">home</text>
<polyline fill="none" stroke="black" points="-204.104,-251 -97.8965,-251 "/>
<polyline fill="none" stroke="black" points="-204.104,-227 -97.8965,-227 "/>
<text text-anchor="start" x="-196.104" y="-211.8" font-family="Times,serif" font-size="14.00">_layout</text>
</g>
<!-- StudentsController -->
<g id="node7" class="node"><title>StudentsController</title>
<path fill="none" stroke="black" d="M-55.8862,135C-55.8862,135 41.8862,135 41.8862,135 47.8862,135 53.8862,129 53.8862,123 53.8862,123 53.8862,-97 53.8862,-97 53.8862,-103 47.8862,-109 41.8862,-109 41.8862,-109 -55.8862,-109 -55.8862,-109 -61.8862,-109 -67.8862,-103 -67.8862,-97 -67.8862,-97 -67.8862,123 -67.8862,123 -67.8862,129 -61.8862,135 -55.8862,135"/>
<text text-anchor="middle" x="-7" y="-93.8" font-family="Times,serif" font-size="14.00">StudentsController</text>
<polyline fill="none" stroke="black" points="-67.8862,-87 53.8862,-87 "/>
<text text-anchor="start" x="-59.8862" y="-71.8" font-family="Times,serif" font-size="14.00">create</text>
<text text-anchor="start" x="-59.8862" y="-57.8" font-family="Times,serif" font-size="14.00">destroy</text>
<text text-anchor="start" x="-59.8862" y="-43.8" font-family="Times,serif" font-size="14.00">details</text>
<text text-anchor="start" x="-59.8862" y="-29.8" font-family="Times,serif" font-size="14.00">edit</text>
<text text-anchor="start" x="-59.8862" y="-15.8" font-family="Times,serif" font-size="14.00">import</text>
<text text-anchor="start" x="-59.8862" y="-1.8" font-family="Times,serif" font-size="14.00">index</text>
<text text-anchor="start" x="-59.8862" y="12.2" font-family="Times,serif" font-size="14.00">new</text>
<text text-anchor="start" x="-59.8862" y="26.2" font-family="Times,serif" font-size="14.00">report</text>
<text text-anchor="start" x="-59.8862" y="40.2" font-family="Times,serif" font-size="14.00">show</text>
<text text-anchor="start" x="-59.8862" y="54.2" font-family="Times,serif" font-size="14.00">update</text>
<polyline fill="none" stroke="black" points="-67.8862,61 53.8862,61 "/>
<polyline fill="none" stroke="black" points="-67.8862,85 53.8862,85 "/>
<text text-anchor="start" x="-59.8862" y="100.2" font-family="Times,serif" font-size="14.00">_layout</text>
<text text-anchor="start" x="-59.8862" y="114.2" font-family="Times,serif" font-size="14.00">set_student</text>
<text text-anchor="start" x="-59.8862" y="128.2" font-family="Times,serif" font-size="14.00">student_params</text>
</g>
<!-- Users::RegistrationsController -->
<g id="node8" class="node"><title>Users::RegistrationsController</title>
<path fill="none" stroke="black" d="M250.455,84C250.455,84 413.545,84 413.545,84 419.545,84 425.545,78 425.545,72 425.545,72 425.545,-8 425.545,-8 425.545,-14 419.545,-20 413.545,-20 413.545,-20 250.455,-20 250.455,-20 244.455,-20 238.455,-14 238.455,-8 238.455,-8 238.455,72 238.455,72 238.455,78 244.455,84 250.455,84"/>
<text text-anchor="middle" x="332" y="-4.8" font-family="Times,serif" font-size="14.00">Users::RegistrationsController</text>
<polyline fill="none" stroke="black" points="238.455,2 425.545,2 "/>
<text text-anchor="start" x="246.455" y="17.2" font-family="Times,serif" font-size="14.00">check_permissions</text>
<text text-anchor="start" x="246.455" y="31.2" font-family="Times,serif" font-size="14.00">sign_up</text>
<polyline fill="none" stroke="black" points="238.455,38 425.545,38 "/>
<polyline fill="none" stroke="black" points="238.455,62 425.545,62 "/>
<text text-anchor="start" x="246.455" y="77.2" font-family="Times,serif" font-size="14.00">_layout</text>
</g>
<!-- UsersController -->
<g id="node9" class="node"><title>UsersController</title>
<path fill="none" stroke="black" d="M-191.714,-1C-191.714,-1 -110.286,-1 -110.286,-1 -104.286,-1 -98.2861,-7 -98.2861,-13 -98.2861,-13 -98.2861,-149 -98.2861,-149 -98.2861,-155 -104.286,-161 -110.286,-161 -110.286,-161 -191.714,-161 -191.714,-161 -197.714,-161 -203.714,-155 -203.714,-149 -203.714,-149 -203.714,-13 -203.714,-13 -203.714,-7 -197.714,-1 -191.714,-1"/>
<text text-anchor="middle" x="-151" y="-145.8" font-family="Times,serif" font-size="14.00">UsersController</text>
<polyline fill="none" stroke="black" points="-203.714,-139 -98.2861,-139 "/>
<text text-anchor="start" x="-195.714" y="-123.8" font-family="Times,serif" font-size="14.00">destroy</text>
<text text-anchor="start" x="-195.714" y="-109.8" font-family="Times,serif" font-size="14.00">edit</text>
<text text-anchor="start" x="-195.714" y="-95.8" font-family="Times,serif" font-size="14.00">index</text>
<text text-anchor="start" x="-195.714" y="-81.8" font-family="Times,serif" font-size="14.00">show</text>
<text text-anchor="start" x="-195.714" y="-67.8" font-family="Times,serif" font-size="14.00">update</text>
<text text-anchor="start" x="-195.714" y="-53.8" font-family="Times,serif" font-size="14.00">user_params</text>
<polyline fill="none" stroke="black" points="-203.714,-47 -98.2861,-47 "/>
<polyline fill="none" stroke="black" points="-203.714,-23 -98.2861,-23 "/>
<text text-anchor="start" x="-195.714" y="-7.8" font-family="Times,serif" font-size="14.00">_layout</text>
</g>
</g>
</svg>
