<?xml version="1.0" encoding="UTF-8" standalone="no"?>
<!DOCTYPE svg PUBLIC "-//W3C//DTD SVG 1.1//EN"
 "http://www.w3.org/Graphics/SVG/1.1/DTD/svg11.dtd">
<!-- Generated by graphviz version 2.38.0 (20140413.2041)
 -->
<!-- Title: controllers_diagram Pages: 1 -->
<svg width="688pt" height="572pt"
 viewBox="0.00 0.00 688.13 572.00" xmlns="http://www.w3.org/2000/svg" xmlns:xlink="http://www.w3.org/1999/xlink">
<g id="graph0" class="graph" transform="scale(1 1) rotate(0) translate(258.59 364.5)">
<title>controllers_diagram</title>
<polygon fill="white" stroke="none" points="-258.59,207.5 -258.59,-364.5 429.545,-364.5 429.545,207.5 -258.59,207.5"/>
<!-- _diagram_info -->
<g id="node1" class="node"><title>_diagram_info</title>
<text text-anchor="start" x="178.312" y="-229.1" font-family="Times,serif" font-size="13.00">Controllers diagram</text>
<text text-anchor="start" x="178.312" y="-216.1" font-family="Times,serif" font-size="13.00">Date: Apr 15 2015 &#45; 16:44</text>
<text text-anchor="start" x="178.312" y="-203.1" font-family="Times,serif" font-size="13.00">Migration version: 20150402210808</text>
<text text-anchor="start" x="178.312" y="-190.1" font-family="Times,serif" font-size="13.00">Generated by RailRoady 1.3.0</text>
<text text-anchor="start" x="178.312" y="-177.1" font-family="Times,serif" font-size="13.00">http://railroady.prestonlee.com</text>
</g>
<!-- ApplicationController -->
<g id="node2" class="node"><title>ApplicationController</title>
<path fill="none" stroke="black" d="M97.0342,203C97.0342,203 270.966,203 270.966,203 276.966,203 282.966,197 282.966,191 282.966,191 282.966,125 282.966,125 282.966,119 276.966,113 270.966,113 270.966,113 97.0342,113 97.0342,113 91.0342,113 85.0342,119 85.0342,125 85.0342,125 85.0342,191 85.0342,191 85.0342,197 91.0342,203 97.0342,203"/>
<text text-anchor="middle" x="184" y="128.2" font-family="Times,serif" font-size="14.00">ApplicationController</text>
<polyline fill="none" stroke="black" points="85.0342,135 282.966,135 "/>
<polyline fill="none" stroke="black" points="85.0342,159 282.966,159 "/>
<text text-anchor="start" x="93.0342" y="174.2" font-family="Times,serif" font-size="14.00">configure_permitted_parameters</text>
<polyline fill="none" stroke="black" points="85.0342,181 282.966,181 "/>
<text text-anchor="start" x="93.0342" y="196.2" font-family="Times,serif" font-size="14.00">_layout</text>
</g>
<!-- CardcontrollerController -->
<g id="node3" class="node"><title>CardcontrollerController</title>
<path fill="none" stroke="black" d="M-242.59,-256C-242.59,-256 -111.41,-256 -111.41,-256 -105.41,-256 -99.4102,-262 -99.4102,-268 -99.4102,-268 -99.4102,-348 -99.4102,-348 -99.4102,-354 -105.41,-360 -111.41,-360 -111.41,-360 -242.59,-360 -242.59,-360 -248.59,-360 -254.59,-354 -254.59,-348 -254.59,-348 -254.59,-268 -254.59,-268 -254.59,-262 -248.59,-256 -242.59,-256"/>
<text text-anchor="middle" x="-177" y="-344.8" font-family="Times,serif" font-size="14.00">CardcontrollerController</text>
<polyline fill="none" stroke="black" points="-254.59,-338 -99.4102,-338 "/>
<text text-anchor="start" x="-246.59" y="-322.8" font-family="Times,serif" font-size="14.00">import</text>
<text text-anchor="start" x="-246.59" y="-308.8" font-family="Times,serif" font-size="14.00">index</text>
<polyline fill="none" stroke="black" points="-254.59,-302 -99.4102,-302 "/>
<polyline fill="none" stroke="black" points="-254.59,-278 -99.4102,-278 "/>
<text text-anchor="start" x="-246.59" y="-262.8" font-family="Times,serif" font-size="14.00">_layout</text>
</g>
<!-- CheckinsController -->
<g id="node4" class="node"><title>CheckinsController</title>
<path fill="none" stroke="black" d="M-55.8242,-137C-55.8242,-137 45.8242,-137 45.8242,-137 51.8242,-137 57.8242,-143 57.8242,-149 57.8242,-149 57.8242,-327 57.8242,-327 57.8242,-333 51.8242,-339 45.8242,-339 45.8242,-339 -55.8242,-339 -55.8242,-339 -61.8242,-339 -67.8242,-333 -67.8242,-327 -67.8242,-327 -67.8242,-149 -67.8242,-149 -67.8242,-143 -61.8242,-137 -55.8242,-137"/>
<text text-anchor="middle" x="-5" y="-323.8" font-family="Times,serif" font-size="14.00">CheckinsController</text>
<polyline fill="none" stroke="black" points="-67.8242,-317 57.8242,-317 "/>
<text text-anchor="start" x="-59.8242" y="-301.8" font-family="Times,serif" font-size="14.00">create</text>
<text text-anchor="start" x="-59.8242" y="-287.8" font-family="Times,serif" font-size="14.00">destroy</text>
<text text-anchor="start" x="-59.8242" y="-273.8" font-family="Times,serif" font-size="14.00">edit</text>
<text text-anchor="start" x="-59.8242" y="-259.8" font-family="Times,serif" font-size="14.00">index</text>
<text text-anchor="start" x="-59.8242" y="-245.8" font-family="Times,serif" font-size="14.00">new</text>
<text text-anchor="start" x="-59.8242" y="-231.8" font-family="Times,serif" font-size="14.00">show</text>
<text text-anchor="start" x="-59.8242" y="-217.8" font-family="Times,serif" font-size="14.00">update</text>
<polyline fill="none" stroke="black" points="-67.8242,-211 57.8242,-211 "/>
<polyline fill="none" stroke="black" points="-67.8242,-187 57.8242,-187 "/>
<text text-anchor="start" x="-59.8242" y="-171.8" font-family="Times,serif" font-size="14.00">_layout</text>
<text text-anchor="start" x="-59.8242" y="-157.8" font-family="Times,serif" font-size="14.00">checkin_params</text>
<text text-anchor="start" x="-59.8242" y="-143.8" font-family="Times,serif" font-size="14.00">set_checkin</text>
</g>
<!-- EventsController -->
<g id="node5" class="node"><title>EventsController</title>
<path fill="none" stroke="black" d="M-55.8242,135C-55.8242,135 31.8242,135 31.8242,135 37.8242,135 43.8242,129 43.8242,123 43.8242,123 43.8242,-97 43.8242,-97 43.8242,-103 37.8242,-109 31.8242,-109 31.8242,-109 -55.8242,-109 -55.8242,-109 -61.8242,-109 -67.8242,-103 -67.8242,-97 -67.8242,-97 -67.8242,123 -67.8242,123 -67.8242,129 -61.8242,135 -55.8242,135"/>
<text text-anchor="middle" x="-12" y="-93.8" font-family="Times,serif" font-size="14.00">EventsController</text>
<polyline fill="none" stroke="black" points="-67.8242,-87 43.8242,-87 "/>
<text text-anchor="start" x="-59.8242" y="-71.8" font-family="Times,serif" font-size="14.00">check</text>
<text text-anchor="start" x="-59.8242" y="-57.8" font-family="Times,serif" font-size="14.00">checkback</text>
<text text-anchor="start" x="-59.8242" y="-43.8" font-family="Times,serif" font-size="14.00">checkin</text>
<text text-anchor="start" x="-59.8242" y="-29.8" font-family="Times,serif" font-size="14.00">create</text>
<text text-anchor="start" x="-59.8242" y="-15.8" font-family="Times,serif" font-size="14.00">destroy</text>
<text text-anchor="start" x="-59.8242" y="-1.8" font-family="Times,serif" font-size="14.00">edit</text>
<text text-anchor="start" x="-59.8242" y="12.2" font-family="Times,serif" font-size="14.00">index</text>
<text text-anchor="start" x="-59.8242" y="26.2" font-family="Times,serif" font-size="14.00">new</text>
<text text-anchor="start" x="-59.8242" y="40.2" font-family="Times,serif" font-size="14.00">show</text>
<text text-anchor="start" x="-59.8242" y="54.2" font-family="Times,serif" font-size="14.00">update</text>
<polyline fill="none" stroke="black" points="-67.8242,61 43.8242,61 "/>
<polyline fill="none" stroke="black" points="-67.8242,85 43.8242,85 "/>
<text text-anchor="start" x="-59.8242" y="100.2" font-family="Times,serif" font-size="14.00">_layout</text>
<text text-anchor="start" x="-59.8242" y="114.2" font-family="Times,serif" font-size="14.00">event_params</text>
<text text-anchor="start" x="-59.8242" y="128.2" font-family="Times,serif" font-size="14.00">set_event</text>
</g>
<!-- PagesController -->
<g id="node6" class="node"><title>PagesController</title>
<path fill="none" stroke="black" d="M-192.104,135C-192.104,135 -109.896,135 -109.896,135 -103.896,135 -97.8965,129 -97.8965,123 -97.8965,123 -97.8965,43 -97.8965,43 -97.8965,37 -103.896,31 -109.896,31 -109.896,31 -192.104,31 -192.104,31 -198.104,31 -204.104,37 -204.104,43 -204.104,43 -204.104,123 -204.104,123 -204.104,129 -198.104,135 -192.104,135"/>
<text text-anchor="middle" x="-151" y="46.2" font-family="Times,serif" font-size="14.00">PagesController</text>
<polyline fill="none" stroke="black" points="-204.104,53 -97.8965,53 "/>
<text text-anchor="start" x="-196.104" y="68.2" font-family="Times,serif" font-size="14.00">help</text>
<text text-anchor="start" x="-196.104" y="82.2" font-family="Times,serif" font-size="14.00">home</text>
<polyline fill="none" stroke="black" points="-204.104,89 -97.8965,89 "/>
<polyline fill="none" stroke="black" points="-204.104,113 -97.8965,113 "/>
<text text-anchor="start" x="-196.104" y="128.2" font-family="Times,serif" font-size="14.00">_layout</text>
</g>
<!-- StudentsController -->
<g id="node7" class="node"><title>StudentsController</title>
<path fill="none" stroke="black" d="M97.1138,84C97.1138,84 194.886,84 194.886,84 200.886,84 206.886,78 206.886,72 206.886,72 206.886,-120 206.886,-120 206.886,-126 200.886,-132 194.886,-132 194.886,-132 97.1138,-132 97.1138,-132 91.1138,-132 85.1138,-126 85.1138,-120 85.1138,-120 85.1138,72 85.1138,72 85.1138,78 91.1138,84 97.1138,84"/>
<text text-anchor="middle" x="146" y="-116.8" font-family="Times,serif" font-size="14.00">StudentsController</text>
<polyline fill="none" stroke="black" points="85.1138,-110 206.886,-110 "/>
<text text-anchor="start" x="93.1138" y="-94.8" font-family="Times,serif" font-size="14.00">create</text>
<text text-anchor="start" x="93.1138" y="-80.8" font-family="Times,serif" font-size="14.00">destroy</text>
<text text-anchor="start" x="93.1138" y="-66.8" font-family="Times,serif" font-size="14.00">edit</text>
<text text-anchor="start" x="93.1138" y="-52.8" font-family="Times,serif" font-size="14.00">import</text>
<text text-anchor="start" x="93.1138" y="-38.8" font-family="Times,serif" font-size="14.00">index</text>
<text text-anchor="start" x="93.1138" y="-24.8" font-family="Times,serif" font-size="14.00">new</text>
<text text-anchor="start" x="93.1138" y="-10.8" font-family="Times,serif" font-size="14.00">show</text>
<text text-anchor="start" x="93.1138" y="3.2" font-family="Times,serif" font-size="14.00">update</text>
<polyline fill="none" stroke="black" points="85.1138,10 206.886,10 "/>
<polyline fill="none" stroke="black" points="85.1138,34 206.886,34 "/>
<text text-anchor="start" x="93.1138" y="49.2" font-family="Times,serif" font-size="14.00">_layout</text>
<text text-anchor="start" x="93.1138" y="63.2" font-family="Times,serif" font-size="14.00">set_student</text>
<text text-anchor="start" x="93.1138" y="77.2" font-family="Times,serif" font-size="14.00">student_params</text>
</g>
<!-- Users::RegistrationsController -->
<g id="node8" class="node"><title>Users::RegistrationsController</title>
<path fill="none" stroke="black" d="M250.455,84C250.455,84 413.545,84 413.545,84 419.545,84 425.545,78 425.545,72 425.545,72 425.545,-8 425.545,-8 425.545,-14 419.545,-20 413.545,-20 413.545,-20 250.455,-20 250.455,-20 244.455,-20 238.455,-14 238.455,-8 238.455,-8 238.455,72 238.455,72 238.455,78 244.455,84 250.455,84"/>
<text text-anchor="middle" x="332" y="-4.8" font-family="Times,serif" font-size="14.00">Users::RegistrationsController</text>
<polyline fill="none" stroke="black" points="238.455,2 425.545,2 "/>
<text text-anchor="start" x="246.455" y="17.2" font-family="Times,serif" font-size="14.00">check_permissions</text>
<text text-anchor="start" x="246.455" y="31.2" font-family="Times,serif" font-size="14.00">sign_up</text>
<polyline fill="none" stroke="black" points="238.455,38 425.545,38 "/>
<polyline fill="none" stroke="black" points="238.455,62 425.545,62 "/>
<text text-anchor="start" x="246.455" y="77.2" font-family="Times,serif" font-size="14.00">_layout</text>
</g>
<!-- UsersController -->
<g id="node9" class="node"><title>UsersController</title>
<path fill="none" stroke="black" d="M-191.714,-1C-191.714,-1 -110.286,-1 -110.286,-1 -104.286,-1 -98.2861,-7 -98.2861,-13 -98.2861,-13 -98.2861,-121 -98.2861,-121 -98.2861,-127 -104.286,-133 -110.286,-133 -110.286,-133 -191.714,-133 -191.714,-133 -197.714,-133 -203.714,-127 -203.714,-121 -203.714,-121 -203.714,-13 -203.714,-13 -203.714,-7 -197.714,-1 -191.714,-1"/>
<text text-anchor="middle" x="-151" y="-117.8" font-family="Times,serif" font-size="14.00">UsersController</text>
<polyline fill="none" stroke="black" points="-203.714,-111 -98.2861,-111 "/>
<text text-anchor="start" x="-195.714" y="-95.8" font-family="Times,serif" font-size="14.00">destroy</text>
<text text-anchor="start" x="-195.714" y="-81.8" font-family="Times,serif" font-size="14.00">edit</text>
<text text-anchor="start" x="-195.714" y="-67.8" font-family="Times,serif" font-size="14.00">index</text>
<text text-anchor="start" x="-195.714" y="-53.8" font-family="Times,serif" font-size="14.00">show</text>
<polyline fill="none" stroke="black" points="-203.714,-47 -98.2861,-47 "/>
<polyline fill="none" stroke="black" points="-203.714,-23 -98.2861,-23 "/>
<text text-anchor="start" x="-195.714" y="-7.8" font-family="Times,serif" font-size="14.00">_layout</text>
</g>
</g>
</svg>
