<?xml version="1.0" encoding="UTF-8" standalone="no"?>
<!DOCTYPE svg PUBLIC "-//W3C//DTD SVG 1.1//EN"
 "http://www.w3.org/Graphics/SVG/1.1/DTD/svg11.dtd">
<!-- Generated by graphviz version 2.38.0 (20140413.2041)
 -->
<!-- Title: controllers_diagram Pages: 1 -->
<svg width="658pt" height="551pt"
 viewBox="0.00 0.00 657.79 551.00" xmlns="http://www.w3.org/2000/svg" xmlns:xlink="http://www.w3.org/1999/xlink">
<g id="graph0" class="graph" transform="scale(1 1) rotate(0) translate(208.104 343.5)">
<title>controllers_diagram</title>
<polygon fill="white" stroke="none" points="-208.104,207.5 -208.104,-343.5 449.688,-343.5 449.688,207.5 -208.104,207.5"/>
<!-- _diagram_info -->
<g id="node1" class="node"><title>_diagram_info</title>
<text text-anchor="start" x="246.312" y="25.9" font-family="Times,serif" font-size="13.00">Controllers diagram</text>
<text text-anchor="start" x="246.312" y="38.9" font-family="Times,serif" font-size="13.00">Date: Apr 06 2015 &#45; 18:40</text>
<text text-anchor="start" x="246.312" y="51.9" font-family="Times,serif" font-size="13.00">Migration version: 20150402210808</text>
<text text-anchor="start" x="246.312" y="64.9" font-family="Times,serif" font-size="13.00">Generated by RailRoady 1.3.0</text>
<text text-anchor="start" x="246.312" y="77.9" font-family="Times,serif" font-size="13.00">http://railroady.prestonlee.com</text>
</g>
<!-- ApplicationController -->
<g id="node2" class="node"><title>ApplicationController</title>
<path fill="none" stroke="black" d="M97.0342,203C97.0342,203 270.966,203 270.966,203 276.966,203 282.966,197 282.966,191 282.966,191 282.966,125 282.966,125 282.966,119 276.966,113 270.966,113 270.966,113 97.0342,113 97.0342,113 91.0342,113 85.0342,119 85.0342,125 85.0342,125 85.0342,191 85.0342,191 85.0342,197 91.0342,203 97.0342,203"/>
<text text-anchor="middle" x="184" y="128.2" font-family="Times,serif" font-size="14.00">ApplicationController</text>
<polyline fill="none" stroke="black" points="85.0342,135 282.966,135 "/>
<polyline fill="none" stroke="black" points="85.0342,159 282.966,159 "/>
<text text-anchor="start" x="93.0342" y="174.2" font-family="Times,serif" font-size="14.00">configure_permitted_parameters</text>
<polyline fill="none" stroke="black" points="85.0342,181 282.966,181 "/>
<text text-anchor="start" x="93.0342" y="196.2" font-family="Times,serif" font-size="14.00">_layout</text>
</g>
<!-- CheckinsController -->
<g id="node3" class="node"><title>CheckinsController</title>
<path fill="none" stroke="black" d="M97.1758,84C97.1758,84 198.824,84 198.824,84 204.824,84 210.824,78 210.824,72 210.824,72 210.824,-106 210.824,-106 210.824,-112 204.824,-118 198.824,-118 198.824,-118 97.1758,-118 97.1758,-118 91.1758,-118 85.1758,-112 85.1758,-106 85.1758,-106 85.1758,72 85.1758,72 85.1758,78 91.1758,84 97.1758,84"/>
<text text-anchor="middle" x="148" y="-102.8" font-family="Times,serif" font-size="14.00">CheckinsController</text>
<polyline fill="none" stroke="black" points="85.1758,-96 210.824,-96 "/>
<text text-anchor="start" x="93.1758" y="-80.8" font-family="Times,serif" font-size="14.00">create</text>
<text text-anchor="start" x="93.1758" y="-66.8" font-family="Times,serif" font-size="14.00">destroy</text>
<text text-anchor="start" x="93.1758" y="-52.8" font-family="Times,serif" font-size="14.00">edit</text>
<text text-anchor="start" x="93.1758" y="-38.8" font-family="Times,serif" font-size="14.00">index</text>
<text text-anchor="start" x="93.1758" y="-24.8" font-family="Times,serif" font-size="14.00">new</text>
<text text-anchor="start" x="93.1758" y="-10.8" font-family="Times,serif" font-size="14.00">show</text>
<text text-anchor="start" x="93.1758" y="3.2" font-family="Times,serif" font-size="14.00">update</text>
<polyline fill="none" stroke="black" points="85.1758,10 210.824,10 "/>
<polyline fill="none" stroke="black" points="85.1758,34 210.824,34 "/>
<text text-anchor="start" x="93.1758" y="49.2" font-family="Times,serif" font-size="14.00">_layout</text>
<text text-anchor="start" x="93.1758" y="63.2" font-family="Times,serif" font-size="14.00">checkin_params</text>
<text text-anchor="start" x="93.1758" y="77.2" font-family="Times,serif" font-size="14.00">set_checkin</text>
</g>
<!-- EventsController -->
<g id="node4" class="node"><title>EventsController</title>
<path fill="none" stroke="black" d="M-55.8242,135C-55.8242,135 31.8242,135 31.8242,135 37.8242,135 43.8242,129 43.8242,123 43.8242,123 43.8242,-97 43.8242,-97 43.8242,-103 37.8242,-109 31.8242,-109 31.8242,-109 -55.8242,-109 -55.8242,-109 -61.8242,-109 -67.8242,-103 -67.8242,-97 -67.8242,-97 -67.8242,123 -67.8242,123 -67.8242,129 -61.8242,135 -55.8242,135"/>
<text text-anchor="middle" x="-12" y="-93.8" font-family="Times,serif" font-size="14.00">EventsController</text>
<polyline fill="none" stroke="black" points="-67.8242,-87 43.8242,-87 "/>
<text text-anchor="start" x="-59.8242" y="-71.8" font-family="Times,serif" font-size="14.00">check</text>
<text text-anchor="start" x="-59.8242" y="-57.8" font-family="Times,serif" font-size="14.00">checkback</text>
<text text-anchor="start" x="-59.8242" y="-43.8" font-family="Times,serif" font-size="14.00">checkin</text>
<text text-anchor="start" x="-59.8242" y="-29.8" font-family="Times,serif" font-size="14.00">create</text>
<text text-anchor="start" x="-59.8242" y="-15.8" font-family="Times,serif" font-size="14.00">destroy</text>
<text text-anchor="start" x="-59.8242" y="-1.8" font-family="Times,serif" font-size="14.00">edit</text>
<text text-anchor="start" x="-59.8242" y="12.2" font-family="Times,serif" font-size="14.00">index</text>
<text text-anchor="start" x="-59.8242" y="26.2" font-family="Times,serif" font-size="14.00">new</text>
<text text-anchor="start" x="-59.8242" y="40.2" font-family="Times,serif" font-size="14.00">show</text>
<text text-anchor="start" x="-59.8242" y="54.2" font-family="Times,serif" font-size="14.00">update</text>
<polyline fill="none" stroke="black" points="-67.8242,61 43.8242,61 "/>
<polyline fill="none" stroke="black" points="-67.8242,85 43.8242,85 "/>
<text text-anchor="start" x="-59.8242" y="100.2" font-family="Times,serif" font-size="14.00">_layout</text>
<text text-anchor="start" x="-59.8242" y="114.2" font-family="Times,serif" font-size="14.00">event_params</text>
<text text-anchor="start" x="-59.8242" y="128.2" font-family="Times,serif" font-size="14.00">set_event</text>
</g>
<!-- PagesController -->
<g id="node5" class="node"><title>PagesController</title>
<path fill="none" stroke="black" d="M-192.104,-205C-192.104,-205 -109.896,-205 -109.896,-205 -103.896,-205 -97.8965,-211 -97.8965,-217 -97.8965,-217 -97.8965,-297 -97.8965,-297 -97.8965,-303 -103.896,-309 -109.896,-309 -109.896,-309 -192.104,-309 -192.104,-309 -198.104,-309 -204.104,-303 -204.104,-297 -204.104,-297 -204.104,-217 -204.104,-217 -204.104,-211 -198.104,-205 -192.104,-205"/>
<text text-anchor="middle" x="-151" y="-293.8" font-family="Times,serif" font-size="14.00">PagesController</text>
<polyline fill="none" stroke="black" points="-204.104,-287 -97.8965,-287 "/>
<text text-anchor="start" x="-196.104" y="-271.8" font-family="Times,serif" font-size="14.00">help</text>
<text text-anchor="start" x="-196.104" y="-257.8" font-family="Times,serif" font-size="14.00">home</text>
<polyline fill="none" stroke="black" points="-204.104,-251 -97.8965,-251 "/>
<polyline fill="none" stroke="black" points="-204.104,-227 -97.8965,-227 "/>
<text text-anchor="start" x="-196.104" y="-211.8" font-family="Times,serif" font-size="14.00">_layout</text>
</g>
<!-- StudentsController -->
<g id="node6" class="node"><title>StudentsController</title>
<path fill="none" stroke="black" d="M-55.8862,-137C-55.8862,-137 41.8862,-137 41.8862,-137 47.8862,-137 53.8862,-143 53.8862,-149 53.8862,-149 53.8862,-327 53.8862,-327 53.8862,-333 47.8862,-339 41.8862,-339 41.8862,-339 -55.8862,-339 -55.8862,-339 -61.8862,-339 -67.8862,-333 -67.8862,-327 -67.8862,-327 -67.8862,-149 -67.8862,-149 -67.8862,-143 -61.8862,-137 -55.8862,-137"/>
<text text-anchor="middle" x="-7" y="-323.8" font-family="Times,serif" font-size="14.00">StudentsController</text>
<polyline fill="none" stroke="black" points="-67.8862,-317 53.8862,-317 "/>
<text text-anchor="start" x="-59.8862" y="-301.8" font-family="Times,serif" font-size="14.00">create</text>
<text text-anchor="start" x="-59.8862" y="-287.8" font-family="Times,serif" font-size="14.00">destroy</text>
<text text-anchor="start" x="-59.8862" y="-273.8" font-family="Times,serif" font-size="14.00">edit</text>
<text text-anchor="start" x="-59.8862" y="-259.8" font-family="Times,serif" font-size="14.00">index</text>
<text text-anchor="start" x="-59.8862" y="-245.8" font-family="Times,serif" font-size="14.00">new</text>
<text text-anchor="start" x="-59.8862" y="-231.8" font-family="Times,serif" font-size="14.00">show</text>
<text text-anchor="start" x="-59.8862" y="-217.8" font-family="Times,serif" font-size="14.00">update</text>
<polyline fill="none" stroke="black" points="-67.8862,-211 53.8862,-211 "/>
<polyline fill="none" stroke="black" points="-67.8862,-187 53.8862,-187 "/>
<text text-anchor="start" x="-59.8862" y="-171.8" font-family="Times,serif" font-size="14.00">_layout</text>
<text text-anchor="start" x="-59.8862" y="-157.8" font-family="Times,serif" font-size="14.00">set_student</text>
<text text-anchor="start" x="-59.8862" y="-143.8" font-family="Times,serif" font-size="14.00">student_params</text>
</g>
<!-- Users::RegistrationsController -->
<g id="node7" class="node"><title>Users::RegistrationsController</title>
<path fill="none" stroke="black" d="M165.455,-154C165.455,-154 328.545,-154 328.545,-154 334.545,-154 340.545,-160 340.545,-166 340.545,-166 340.545,-246 340.545,-246 340.545,-252 334.545,-258 328.545,-258 328.545,-258 165.455,-258 165.455,-258 159.455,-258 153.455,-252 153.455,-246 153.455,-246 153.455,-166 153.455,-166 153.455,-160 159.455,-154 165.455,-154"/>
<text text-anchor="middle" x="247" y="-242.8" font-family="Times,serif" font-size="14.00">Users::RegistrationsController</text>
<polyline fill="none" stroke="black" points="153.455,-236 340.545,-236 "/>
<text text-anchor="start" x="161.455" y="-220.8" font-family="Times,serif" font-size="14.00">check_permissions</text>
<text text-anchor="start" x="161.455" y="-206.8" font-family="Times,serif" font-size="14.00">sign_up</text>
<polyline fill="none" stroke="black" points="153.455,-200 340.545,-200 "/>
<polyline fill="none" stroke="black" points="153.455,-176 340.545,-176 "/>
<text text-anchor="start" x="161.455" y="-160.8" font-family="Times,serif" font-size="14.00">_layout</text>
</g>
<!-- UsersController -->
<g id="node8" class="node"><title>UsersController</title>
<path fill="none" stroke="black" d="M-191.714,-1C-191.714,-1 -110.286,-1 -110.286,-1 -104.286,-1 -98.2861,-7 -98.2861,-13 -98.2861,-13 -98.2861,-121 -98.2861,-121 -98.2861,-127 -104.286,-133 -110.286,-133 -110.286,-133 -191.714,-133 -191.714,-133 -197.714,-133 -203.714,-127 -203.714,-121 -203.714,-121 -203.714,-13 -203.714,-13 -203.714,-7 -197.714,-1 -191.714,-1"/>
<text text-anchor="middle" x="-151" y="-117.8" font-family="Times,serif" font-size="14.00">UsersController</text>
<polyline fill="none" stroke="black" points="-203.714,-111 -98.2861,-111 "/>
<text text-anchor="start" x="-195.714" y="-95.8" font-family="Times,serif" font-size="14.00">destroy</text>
<text text-anchor="start" x="-195.714" y="-81.8" font-family="Times,serif" font-size="14.00">edit</text>
<text text-anchor="start" x="-195.714" y="-67.8" font-family="Times,serif" font-size="14.00">index</text>
<text text-anchor="start" x="-195.714" y="-53.8" font-family="Times,serif" font-size="14.00">show</text>
<polyline fill="none" stroke="black" points="-203.714,-47 -98.2861,-47 "/>
<polyline fill="none" stroke="black" points="-203.714,-23 -98.2861,-23 "/>
<text text-anchor="start" x="-195.714" y="-7.8" font-family="Times,serif" font-size="14.00">_layout</text>
</g>
</g>
</svg>
