<?xml version="1.0" encoding="UTF-8" standalone="no"?>
<!DOCTYPE svg PUBLIC "-//W3C//DTD SVG 1.1//EN"
 "http://www.w3.org/Graphics/SVG/1.1/DTD/svg11.dtd">
<!-- Generated by graphviz version 2.38.0 (20140413.2041)
 -->
<!-- Title: models_diagram Pages: 1 -->
<svg width="1037pt" height="607pt"
 viewBox="0.00 0.00 1036.97 607.00" xmlns="http://www.w3.org/2000/svg" xmlns:xlink="http://www.w3.org/1999/xlink">
<g id="graph0" class="graph" transform="scale(1 1) rotate(0) translate(4 603)">
<title>models_diagram</title>
<polygon fill="white" stroke="none" points="-4,4 -4,-603 1032.97,-603 1032.97,4 -4,4"/>
<!-- _diagram_info -->
<g id="node1" class="node"><title>_diagram_info</title>
<text text-anchor="start" x="8" y="-507.6" font-family="Times,serif" font-size="13.00">Models diagram</text>
<text text-anchor="start" x="8" y="-494.6" font-family="Times,serif" font-size="13.00">Date: May 05 2015 &#45; 20:47</text>
<text text-anchor="start" x="8" y="-481.6" font-family="Times,serif" font-size="13.00">Migration version: 20150502162746</text>
<text text-anchor="start" x="8" y="-468.6" font-family="Times,serif" font-size="13.00">Generated by RailRoady 1.3.0</text>
<text text-anchor="start" x="8" y="-455.6" font-family="Times,serif" font-size="13.00">http://railroady.prestonlee.com</text>
</g>
<!-- Ability -->
<g id="node2" class="node"><title>Ability</title>
<polygon fill="none" stroke="black" points="225.853,-463.5 225.853,-507.5 281.522,-507.5 281.522,-463.5 225.853,-463.5"/>
<text text-anchor="middle" x="253.688" y="-492.3" font-family="Times,serif" font-size="14.00">Ability</text>
<polyline fill="none" stroke="black" points="225.853,-485.5 281.522,-485.5 "/>
<text text-anchor="middle" x="253.688" y="-470.3" font-family="Times,serif" font-size="14.00"> </text>
</g>
<!-- Admin -->
<g id="node3" class="node"><title>Admin</title>
<path fill="none" stroke="black" d="M311.41,-372.5C311.41,-372.5 491.966,-372.5 491.966,-372.5 497.966,-372.5 503.966,-378.5 503.966,-384.5 503.966,-384.5 503.966,-586.5 503.966,-586.5 503.966,-592.5 497.966,-598.5 491.966,-598.5 491.966,-598.5 311.41,-598.5 311.41,-598.5 305.41,-598.5 299.41,-592.5 299.41,-586.5 299.41,-586.5 299.41,-384.5 299.41,-384.5 299.41,-378.5 305.41,-372.5 311.41,-372.5"/>
<text text-anchor="middle" x="401.688" y="-583.3" font-family="Times,serif" font-size="14.00">Admin</text>
<polyline fill="none" stroke="black" points="299.41,-576.5 503.966,-576.5 "/>
<text text-anchor="start" x="307.41" y="-561.3" font-family="Times,serif" font-size="14.00">id :integer</text>
<text text-anchor="start" x="307.41" y="-547.3" font-family="Times,serif" font-size="14.00">email :string</text>
<text text-anchor="start" x="307.41" y="-533.3" font-family="Times,serif" font-size="14.00">encrypted_password :string</text>
<text text-anchor="start" x="307.41" y="-519.3" font-family="Times,serif" font-size="14.00">reset_password_token :string</text>
<text text-anchor="start" x="307.41" y="-505.3" font-family="Times,serif" font-size="14.00">reset_password_sent_at :datetime</text>
<text text-anchor="start" x="307.41" y="-491.3" font-family="Times,serif" font-size="14.00">remember_created_at :datetime</text>
<text text-anchor="start" x="307.41" y="-477.3" font-family="Times,serif" font-size="14.00">sign_in_count :integer</text>
<text text-anchor="start" x="307.41" y="-463.3" font-family="Times,serif" font-size="14.00">current_sign_in_at :datetime</text>
<text text-anchor="start" x="307.41" y="-449.3" font-family="Times,serif" font-size="14.00">last_sign_in_at :datetime</text>
<text text-anchor="start" x="307.41" y="-435.3" font-family="Times,serif" font-size="14.00">current_sign_in_ip :string</text>
<text text-anchor="start" x="307.41" y="-421.3" font-family="Times,serif" font-size="14.00">last_sign_in_ip :string</text>
<text text-anchor="start" x="307.41" y="-407.3" font-family="Times,serif" font-size="14.00">created_at :datetime</text>
<text text-anchor="start" x="307.41" y="-393.3" font-family="Times,serif" font-size="14.00">updated_at :datetime</text>
<text text-anchor="start" x="307.41" y="-379.3" font-family="Times,serif" font-size="14.00">username :string</text>
</g>
<!-- Card -->
<g id="node4" class="node"><title>Card</title>
<path fill="none" stroke="black" d="M534.182,-435.5C534.182,-435.5 643.193,-435.5 643.193,-435.5 649.193,-435.5 655.193,-441.5 655.193,-447.5 655.193,-447.5 655.193,-523.5 655.193,-523.5 655.193,-529.5 649.193,-535.5 643.193,-535.5 643.193,-535.5 534.182,-535.5 534.182,-535.5 528.182,-535.5 522.182,-529.5 522.182,-523.5 522.182,-523.5 522.182,-447.5 522.182,-447.5 522.182,-441.5 528.182,-435.5 534.182,-435.5"/>
<text text-anchor="middle" x="588.688" y="-520.3" font-family="Times,serif" font-size="14.00">Card</text>
<polyline fill="none" stroke="black" points="522.182,-513.5 655.193,-513.5 "/>
<text text-anchor="start" x="530.182" y="-498.3" font-family="Times,serif" font-size="14.00">id :integer</text>
<text text-anchor="start" x="530.182" y="-484.3" font-family="Times,serif" font-size="14.00">number :string</text>
<text text-anchor="start" x="530.182" y="-470.3" font-family="Times,serif" font-size="14.00">uin :string</text>
<text text-anchor="start" x="530.182" y="-456.3" font-family="Times,serif" font-size="14.00">created_at :datetime</text>
<text text-anchor="start" x="530.182" y="-442.3" font-family="Times,serif" font-size="14.00">updated_at :datetime</text>
</g>
<!-- Checkin -->
<g id="node5" class="node"><title>Checkin</title>
<path fill="none" stroke="black" d="M684.182,-0.5C684.182,-0.5 793.193,-0.5 793.193,-0.5 799.193,-0.5 805.193,-6.5 805.193,-12.5 805.193,-12.5 805.193,-88.5 805.193,-88.5 805.193,-94.5 799.193,-100.5 793.193,-100.5 793.193,-100.5 684.182,-100.5 684.182,-100.5 678.182,-100.5 672.182,-94.5 672.182,-88.5 672.182,-88.5 672.182,-12.5 672.182,-12.5 672.182,-6.5 678.182,-0.5 684.182,-0.5"/>
<text text-anchor="middle" x="738.688" y="-85.3" font-family="Times,serif" font-size="14.00">Checkin</text>
<polyline fill="none" stroke="black" points="672.182,-78.5 805.193,-78.5 "/>
<text text-anchor="start" x="680.182" y="-63.3" font-family="Times,serif" font-size="14.00">id :integer</text>
<text text-anchor="start" x="680.182" y="-49.3" font-family="Times,serif" font-size="14.00">created_at :datetime</text>
<text text-anchor="start" x="680.182" y="-35.3" font-family="Times,serif" font-size="14.00">updated_at :datetime</text>
<text text-anchor="start" x="680.182" y="-21.3" font-family="Times,serif" font-size="14.00">student_id :integer</text>
<text text-anchor="start" x="680.182" y="-7.3" font-family="Times,serif" font-size="14.00">event_id :integer</text>
</g>
<!-- Event -->
<g id="node6" class="node"><title>Event</title>
<path fill="none" stroke="black" d="M685.182,-393.5C685.182,-393.5 794.193,-393.5 794.193,-393.5 800.193,-393.5 806.193,-399.5 806.193,-405.5 806.193,-405.5 806.193,-565.5 806.193,-565.5 806.193,-571.5 800.193,-577.5 794.193,-577.5 794.193,-577.5 685.182,-577.5 685.182,-577.5 679.182,-577.5 673.182,-571.5 673.182,-565.5 673.182,-565.5 673.182,-405.5 673.182,-405.5 673.182,-399.5 679.182,-393.5 685.182,-393.5"/>
<text text-anchor="middle" x="739.688" y="-562.3" font-family="Times,serif" font-size="14.00">Event</text>
<polyline fill="none" stroke="black" points="673.182,-555.5 806.193,-555.5 "/>
<text text-anchor="start" x="681.182" y="-540.3" font-family="Times,serif" font-size="14.00">id :integer</text>
<text text-anchor="start" x="681.182" y="-526.3" font-family="Times,serif" font-size="14.00">name :string</text>
<text text-anchor="start" x="681.182" y="-512.3" font-family="Times,serif" font-size="14.00">year :integer</text>
<text text-anchor="start" x="681.182" y="-498.3" font-family="Times,serif" font-size="14.00">term :string</text>
<text text-anchor="start" x="681.182" y="-484.3" font-family="Times,serif" font-size="14.00">date :date</text>
<text text-anchor="start" x="681.182" y="-470.3" font-family="Times,serif" font-size="14.00">location :string</text>
<text text-anchor="start" x="681.182" y="-456.3" font-family="Times,serif" font-size="14.00">time :string</text>
<text text-anchor="start" x="681.182" y="-442.3" font-family="Times,serif" font-size="14.00">created_at :datetime</text>
<text text-anchor="start" x="681.182" y="-428.3" font-family="Times,serif" font-size="14.00">updated_at :datetime</text>
<text text-anchor="start" x="681.182" y="-414.3" font-family="Times,serif" font-size="14.00">kind :string</text>
<text text-anchor="start" x="681.182" y="-400.3" font-family="Times,serif" font-size="14.00">typename :string</text>
</g>
<!-- Event&#45;&gt;Checkin -->
<g id="edge1" class="edge"><title>Event&#45;&gt;Checkin</title>
<path fill="none" stroke="#b46cbc" d="M717.59,-385.395C714.72,-368.974 712.242,-352.066 710.688,-336 702.172,-247.966 696.751,-224.339 710.688,-137 712.083,-128.259 714.232,-119.198 716.734,-110.387"/>
<ellipse fill="none" stroke="#b46cbc" cx="718.322" cy="-389.475" rx="4.00001" ry="4.00001"/>
<polygon fill="#b46cbc" stroke="#b46cbc" points="716.805,-110.151 723.995,-101.872 718.245,-105.363 719.686,-100.575 719.686,-100.575 719.686,-100.575 718.245,-105.363 715.377,-99.2785 716.805,-110.151 716.805,-110.151"/>
</g>
<!-- Student -->
<g id="node7" class="node"><title>Student</title>
<path fill="none" stroke="black" d="M732.182,-137.5C732.182,-137.5 841.193,-137.5 841.193,-137.5 847.193,-137.5 853.193,-143.5 853.193,-149.5 853.193,-149.5 853.193,-323.5 853.193,-323.5 853.193,-329.5 847.193,-335.5 841.193,-335.5 841.193,-335.5 732.182,-335.5 732.182,-335.5 726.182,-335.5 720.182,-329.5 720.182,-323.5 720.182,-323.5 720.182,-149.5 720.182,-149.5 720.182,-143.5 726.182,-137.5 732.182,-137.5"/>
<text text-anchor="middle" x="786.688" y="-320.3" font-family="Times,serif" font-size="14.00">Student</text>
<polyline fill="none" stroke="black" points="720.182,-313.5 853.193,-313.5 "/>
<text text-anchor="start" x="728.182" y="-298.3" font-family="Times,serif" font-size="14.00">id :integer</text>
<text text-anchor="start" x="728.182" y="-284.3" font-family="Times,serif" font-size="14.00">uin :string</text>
<text text-anchor="start" x="728.182" y="-270.3" font-family="Times,serif" font-size="14.00">fname :string</text>
<text text-anchor="start" x="728.182" y="-256.3" font-family="Times,serif" font-size="14.00">lname :string</text>
<text text-anchor="start" x="728.182" y="-242.3" font-family="Times,serif" font-size="14.00">card :string</text>
<text text-anchor="start" x="728.182" y="-228.3" font-family="Times,serif" font-size="14.00">email :string</text>
<text text-anchor="start" x="728.182" y="-214.3" font-family="Times,serif" font-size="14.00">created_at :datetime</text>
<text text-anchor="start" x="728.182" y="-200.3" font-family="Times,serif" font-size="14.00">updated_at :datetime</text>
<text text-anchor="start" x="728.182" y="-186.3" font-family="Times,serif" font-size="14.00">deptevents :integer</text>
<text text-anchor="start" x="728.182" y="-172.3" font-family="Times,serif" font-size="14.00">indevents :integer</text>
<text text-anchor="start" x="728.182" y="-158.3" font-family="Times,serif" font-size="14.00">term :string</text>
<text text-anchor="start" x="728.182" y="-144.3" font-family="Times,serif" font-size="14.00">year :string</text>
</g>
<!-- Event&#45;&gt;Student -->
<g id="edge2" class="edge"><title>Event&#45;&gt;Student</title>
<path fill="none" stroke="#18ca8e" d="M758.99,-383.062C761.331,-370.757 763.73,-358.151 766.089,-345.753"/>
<polygon fill="#18ca8e" stroke="#18ca8e" points="758.925,-383.404 752.635,-392.387 757.99,-388.316 757.055,-393.228 757.055,-393.228 757.055,-393.228 757.99,-388.316 761.476,-394.069 758.925,-383.404 758.925,-383.404"/>
<polygon fill="#18ca8e" stroke="#18ca8e" points="766.101,-345.688 772.391,-336.705 767.036,-340.776 767.971,-335.864 767.971,-335.864 767.971,-335.864 767.036,-340.776 763.55,-335.023 766.101,-345.688 766.101,-345.688"/>
</g>
<!-- Student&#45;&gt;Checkin -->
<g id="edge3" class="edge"><title>Student&#45;&gt;Checkin</title>
<path fill="none" stroke="#cbb187" d="M758.987,-129.315C757.33,-122.964 755.698,-116.705 754.122,-110.663"/>
<ellipse fill="none" stroke="#cbb187" cx="760.062" cy="-133.434" rx="4.00001" ry="4.00001"/>
<polygon fill="#cbb187" stroke="#cbb187" points="754.053,-110.4 755.883,-99.5877 752.791,-105.562 751.529,-100.724 751.529,-100.724 751.529,-100.724 752.791,-105.562 747.174,-101.86 754.053,-110.4 754.053,-110.4"/>
</g>
<!-- User -->
<g id="node8" class="node"><title>User</title>
<path fill="none" stroke="black" d="M836.41,-372.5C836.41,-372.5 1016.97,-372.5 1016.97,-372.5 1022.97,-372.5 1028.97,-378.5 1028.97,-384.5 1028.97,-384.5 1028.97,-586.5 1028.97,-586.5 1028.97,-592.5 1022.97,-598.5 1016.97,-598.5 1016.97,-598.5 836.41,-598.5 836.41,-598.5 830.41,-598.5 824.41,-592.5 824.41,-586.5 824.41,-586.5 824.41,-384.5 824.41,-384.5 824.41,-378.5 830.41,-372.5 836.41,-372.5"/>
<text text-anchor="middle" x="926.688" y="-583.3" font-family="Times,serif" font-size="14.00">User</text>
<polyline fill="none" stroke="black" points="824.41,-576.5 1028.97,-576.5 "/>
<text text-anchor="start" x="832.41" y="-561.3" font-family="Times,serif" font-size="14.00">id :integer</text>
<text text-anchor="start" x="832.41" y="-547.3" font-family="Times,serif" font-size="14.00">email :string</text>
<text text-anchor="start" x="832.41" y="-533.3" font-family="Times,serif" font-size="14.00">encrypted_password :string</text>
<text text-anchor="start" x="832.41" y="-519.3" font-family="Times,serif" font-size="14.00">reset_password_token :string</text>
<text text-anchor="start" x="832.41" y="-505.3" font-family="Times,serif" font-size="14.00">reset_password_sent_at :datetime</text>
<text text-anchor="start" x="832.41" y="-491.3" font-family="Times,serif" font-size="14.00">remember_created_at :datetime</text>
<text text-anchor="start" x="832.41" y="-477.3" font-family="Times,serif" font-size="14.00">sign_in_count :integer</text>
<text text-anchor="start" x="832.41" y="-463.3" font-family="Times,serif" font-size="14.00">current_sign_in_at :datetime</text>
<text text-anchor="start" x="832.41" y="-449.3" font-family="Times,serif" font-size="14.00">last_sign_in_at :datetime</text>
<text text-anchor="start" x="832.41" y="-435.3" font-family="Times,serif" font-size="14.00">current_sign_in_ip :string</text>
<text text-anchor="start" x="832.41" y="-421.3" font-family="Times,serif" font-size="14.00">last_sign_in_ip :string</text>
<text text-anchor="start" x="832.41" y="-407.3" font-family="Times,serif" font-size="14.00">created_at :datetime</text>
<text text-anchor="start" x="832.41" y="-393.3" font-family="Times,serif" font-size="14.00">updated_at :datetime</text>
<text text-anchor="start" x="832.41" y="-379.3" font-family="Times,serif" font-size="14.00">username :string</text>
</g>
</g>
</svg>
