<?xml version="1.0" encoding="UTF-8" standalone="no"?>
<!DOCTYPE svg PUBLIC "-//W3C//DTD SVG 1.1//EN"
 "http://www.w3.org/Graphics/SVG/1.1/DTD/svg11.dtd">
<!-- Generated by graphviz version 2.38.0 (20140413.2041)
 -->
<!-- Title: models_diagram Pages: 1 -->
<svg width="494pt" height="297pt"
 viewBox="0.00 0.00 493.69 297.00" xmlns="http://www.w3.org/2000/svg" xmlns:xlink="http://www.w3.org/1999/xlink">
<g id="graph0" class="graph" transform="scale(1 1) rotate(0) translate(4 293)">
<title>models_diagram</title>
<polygon fill="white" stroke="none" points="-4,4 -4,-293 489.688,-293 489.688,4 -4,4"/>
<!-- _diagram_info -->
<g id="node1" class="node"><title>_diagram_info</title>
<text text-anchor="start" x="8" y="-274.6" font-family="Times,serif" font-size="13.00">Models diagram</text>
<text text-anchor="start" x="8" y="-261.6" font-family="Times,serif" font-size="13.00">Date: Apr 06 2015 &#45; 18:40</text>
<text text-anchor="start" x="8" y="-248.6" font-family="Times,serif" font-size="13.00">Migration version: 20150402210808</text>
<text text-anchor="start" x="8" y="-235.6" font-family="Times,serif" font-size="13.00">Generated by RailRoady 1.3.0</text>
<text text-anchor="start" x="8" y="-222.6" font-family="Times,serif" font-size="13.00">http://railroady.prestonlee.com</text>
</g>
<!-- Ability -->
<g id="node2" class="node"><title>Ability</title>
<polygon fill="none" stroke="black" points="281.358,-270.5 226.018,-270.5 226.018,-234.5 281.358,-234.5 281.358,-270.5"/>
<text text-anchor="middle" x="253.688" y="-248.3" font-family="Times,serif" font-size="14.00">Ability</text>
</g>
<!-- Admin -->
<g id="node3" class="node"><title>Admin</title>
<ellipse fill="none" stroke="black" cx="334.688" cy="-252.5" rx="34.8458" ry="18"/>
<text text-anchor="middle" x="334.688" y="-248.3" font-family="Times,serif" font-size="14.00">Admin</text>
</g>
<!-- Checkin -->
<g id="node4" class="node"><title>Checkin</title>
<ellipse fill="none" stroke="black" cx="403.688" cy="-18" rx="39.6558" ry="18"/>
<text text-anchor="middle" x="403.688" y="-13.8" font-family="Times,serif" font-size="14.00">Checkin</text>
</g>
<!-- Event -->
<g id="node5" class="node"><title>Event</title>
<ellipse fill="none" stroke="black" cx="417.688" cy="-252.5" rx="30.9706" ry="18"/>
<text text-anchor="middle" x="417.688" y="-248.3" font-family="Times,serif" font-size="14.00">Event</text>
</g>
<!-- Event&#45;&gt;Checkin -->
<g id="edge1" class="edge"><title>Event&#45;&gt;Checkin</title>
<path fill="none" stroke="#9a322f" d="M398.823,-229.528C388.62,-216.165 377.039,-198.209 371.688,-180 357.924,-133.169 376.903,-76.9321 390.972,-44.8399"/>
<ellipse fill="none" stroke="#9a322f" cx="401.513" cy="-232.935" rx="4.00002" ry="4.00002"/>
<polygon fill="#9a322f" stroke="#9a322f" points="390.993,-44.7929 399.234,-37.558 393.066,-40.2427 395.139,-35.6926 395.139,-35.6926 395.139,-35.6926 393.066,-40.2427 391.043,-33.8271 390.993,-44.7929 390.993,-44.7929"/>
</g>
<!-- Student -->
<g id="node6" class="node"><title>Student</title>
<ellipse fill="none" stroke="black" cx="417.688" cy="-162" rx="37.2594" ry="18"/>
<text text-anchor="middle" x="417.688" y="-157.8" font-family="Times,serif" font-size="14.00">Student</text>
</g>
<!-- Event&#45;&gt;Student -->
<g id="edge2" class="edge"><title>Event&#45;&gt;Student</title>
<path fill="none" stroke="#60020d" d="M417.688,-224.092C417.688,-213.289 417.688,-200.912 417.688,-190.136"/>
<polygon fill="#60020d" stroke="#60020d" points="417.688,-224.436 413.188,-234.436 417.688,-229.436 417.688,-234.436 417.688,-234.436 417.688,-234.436 417.688,-229.436 422.188,-234.436 417.688,-224.436 417.688,-224.436"/>
<polygon fill="#60020d" stroke="#60020d" points="417.688,-190.011 422.188,-180.011 417.688,-185.011 417.688,-180.011 417.688,-180.011 417.688,-180.011 417.688,-185.011 413.188,-180.011 417.688,-190.011 417.688,-190.011"/>
</g>
<!-- User -->
<g id="node7" class="node"><title>User</title>
<ellipse fill="none" stroke="black" cx="458.688" cy="-90" rx="27" ry="18"/>
<text text-anchor="middle" x="458.688" y="-85.8" font-family="Times,serif" font-size="14.00">User</text>
</g>
<!-- Event&#45;&gt;User -->
<g id="edge3" class="edge"><title>Event&#45;&gt;User</title>
<path fill="none" stroke="#7bc74a" d="M437.681,-228.038C447.597,-214.847 458.532,-197.541 463.688,-180 469.642,-159.74 467.828,-135.792 464.836,-117.844"/>
<polygon fill="#7bc74a" stroke="#7bc74a" points="437.552,-228.203 427.842,-233.298 434.468,-232.139 431.384,-236.074 431.384,-236.074 431.384,-236.074 434.468,-232.139 434.925,-238.85 437.552,-228.203 437.552,-228.203"/>
<polygon fill="#7bc74a" stroke="#7bc74a" points="464.792,-117.613 467.355,-106.951 463.863,-112.7 462.934,-107.787 462.934,-107.787 462.934,-107.787 463.863,-112.7 458.512,-108.623 464.792,-117.613 464.792,-117.613"/>
</g>
<!-- Student&#45;&gt;Checkin -->
<g id="edge4" class="edge"><title>Student&#45;&gt;Checkin</title>
<path fill="none" stroke="#e4bd90" d="M415.179,-135.558C412.703,-110.444 408.929,-72.164 406.388,-46.3932"/>
<ellipse fill="none" stroke="#e4bd90" cx="415.607" cy="-139.891" rx="4" ry="4"/>
<polygon fill="#e4bd90" stroke="#e4bd90" points="406.364,-46.141 409.861,-35.7477 405.873,-41.1651 405.382,-36.1893 405.382,-36.1893 405.382,-36.1893 405.873,-41.1651 400.904,-36.6308 406.364,-46.141 406.364,-46.141"/>
</g>
<!-- Student&#45;&gt;User -->
<g id="edge5" class="edge"><title>Student&#45;&gt;User</title>
<path fill="none" stroke="#afd719" d="M432.531,-135.658C436.298,-129.227 440.341,-122.323 444.095,-115.914"/>
<polygon fill="#afd719" stroke="#afd719" points="432.458,-135.782 423.521,-142.137 429.931,-140.097 427.404,-144.411 427.404,-144.411 427.404,-144.411 429.931,-140.097 431.287,-146.685 432.458,-135.782 432.458,-135.782"/>
<polygon fill="#afd719" stroke="#afd719" points="444.269,-115.617 453.206,-109.262 446.796,-111.303 449.323,-106.988 449.323,-106.988 449.323,-106.988 446.796,-111.303 445.44,-104.714 444.269,-115.617 444.269,-115.617"/>
</g>
<!-- User&#45;&gt;Checkin -->
<g id="edge6" class="edge"><title>User&#45;&gt;Checkin</title>
<path fill="none" stroke="#66122a" d="M441.635,-67.2961C435.641,-59.6673 428.869,-51.0486 422.722,-43.2255"/>
<ellipse fill="none" stroke="#66122a" cx="444.282" cy="-70.6658" rx="4.00002" ry="4.00002"/>
<polygon fill="#66122a" stroke="#66122a" points="422.542,-42.9968 419.903,-32.3534 419.453,-39.0652 416.364,-35.1336 416.364,-35.1336 416.364,-35.1336 419.453,-39.0652 412.826,-37.9138 422.542,-42.9968 422.542,-42.9968"/>
</g>
</g>
</svg>
