<?xml version="1.0" encoding="UTF-8" standalone="no"?>
<!DOCTYPE svg PUBLIC "-//W3C//DTD SVG 1.1//EN"
 "http://www.w3.org/Graphics/SVG/1.1/DTD/svg11.dtd">
<!-- Generated by graphviz version 2.38.0 (20140413.2041)
 -->
<!-- Title: models_diagram Pages: 1 -->
<svg width="783pt" height="828pt"
 viewBox="0.00 0.00 782.97 828.00" xmlns="http://www.w3.org/2000/svg" xmlns:xlink="http://www.w3.org/1999/xlink">
<g id="graph0" class="graph" transform="scale(1 1) rotate(0) translate(4 824)">
<title>models_diagram</title>
<polygon fill="white" stroke="none" points="-4,4 -4,-824 778.966,-824 778.966,4 -4,4"/>
<!-- _diagram_info -->
<g id="node1" class="node"><title>_diagram_info</title>
<text text-anchor="start" x="8" y="-728.6" font-family="Times,serif" font-size="13.00">Models diagram</text>
<text text-anchor="start" x="8" y="-715.6" font-family="Times,serif" font-size="13.00">Date: Apr 15 2015 &#45; 16:43</text>
<text text-anchor="start" x="8" y="-702.6" font-family="Times,serif" font-size="13.00">Migration version: 20150402210808</text>
<text text-anchor="start" x="8" y="-689.6" font-family="Times,serif" font-size="13.00">Generated by RailRoady 1.3.0</text>
<text text-anchor="start" x="8" y="-676.6" font-family="Times,serif" font-size="13.00">http://railroady.prestonlee.com</text>
</g>
<!-- Ability -->
<g id="node2" class="node"><title>Ability</title>
<polygon fill="none" stroke="black" points="225.853,-684.5 225.853,-728.5 281.522,-728.5 281.522,-684.5 225.853,-684.5"/>
<text text-anchor="middle" x="253.688" y="-713.3" font-family="Times,serif" font-size="14.00">Ability</text>
<polyline fill="none" stroke="black" points="225.853,-706.5 281.522,-706.5 "/>
<text text-anchor="middle" x="253.688" y="-691.3" font-family="Times,serif" font-size="14.00"> </text>
</g>
<!-- Admin -->
<g id="node3" class="node"><title>Admin</title>
<path fill="none" stroke="black" d="M311.41,-593.5C311.41,-593.5 491.966,-593.5 491.966,-593.5 497.966,-593.5 503.966,-599.5 503.966,-605.5 503.966,-605.5 503.966,-807.5 503.966,-807.5 503.966,-813.5 497.966,-819.5 491.966,-819.5 491.966,-819.5 311.41,-819.5 311.41,-819.5 305.41,-819.5 299.41,-813.5 299.41,-807.5 299.41,-807.5 299.41,-605.5 299.41,-605.5 299.41,-599.5 305.41,-593.5 311.41,-593.5"/>
<text text-anchor="middle" x="401.688" y="-804.3" font-family="Times,serif" font-size="14.00">Admin</text>
<polyline fill="none" stroke="black" points="299.41,-797.5 503.966,-797.5 "/>
<text text-anchor="start" x="307.41" y="-782.3" font-family="Times,serif" font-size="14.00">id :integer</text>
<text text-anchor="start" x="307.41" y="-768.3" font-family="Times,serif" font-size="14.00">email :string</text>
<text text-anchor="start" x="307.41" y="-754.3" font-family="Times,serif" font-size="14.00">encrypted_password :string</text>
<text text-anchor="start" x="307.41" y="-740.3" font-family="Times,serif" font-size="14.00">reset_password_token :string</text>
<text text-anchor="start" x="307.41" y="-726.3" font-family="Times,serif" font-size="14.00">reset_password_sent_at :datetime</text>
<text text-anchor="start" x="307.41" y="-712.3" font-family="Times,serif" font-size="14.00">remember_created_at :datetime</text>
<text text-anchor="start" x="307.41" y="-698.3" font-family="Times,serif" font-size="14.00">sign_in_count :integer</text>
<text text-anchor="start" x="307.41" y="-684.3" font-family="Times,serif" font-size="14.00">current_sign_in_at :datetime</text>
<text text-anchor="start" x="307.41" y="-670.3" font-family="Times,serif" font-size="14.00">last_sign_in_at :datetime</text>
<text text-anchor="start" x="307.41" y="-656.3" font-family="Times,serif" font-size="14.00">current_sign_in_ip :string</text>
<text text-anchor="start" x="307.41" y="-642.3" font-family="Times,serif" font-size="14.00">last_sign_in_ip :string</text>
<text text-anchor="start" x="307.41" y="-628.3" font-family="Times,serif" font-size="14.00">created_at :datetime</text>
<text text-anchor="start" x="307.41" y="-614.3" font-family="Times,serif" font-size="14.00">updated_at :datetime</text>
<text text-anchor="start" x="307.41" y="-600.3" font-family="Times,serif" font-size="14.00">username :string</text>
</g>
<!-- Checkin -->
<g id="node4" class="node"><title>Checkin</title>
<path fill="none" stroke="black" d="M488.182,-0.5C488.182,-0.5 597.193,-0.5 597.193,-0.5 603.193,-0.5 609.193,-6.5 609.193,-12.5 609.193,-12.5 609.193,-102.5 609.193,-102.5 609.193,-108.5 603.193,-114.5 597.193,-114.5 597.193,-114.5 488.182,-114.5 488.182,-114.5 482.182,-114.5 476.182,-108.5 476.182,-102.5 476.182,-102.5 476.182,-12.5 476.182,-12.5 476.182,-6.5 482.182,-0.5 488.182,-0.5"/>
<text text-anchor="middle" x="542.688" y="-99.3" font-family="Times,serif" font-size="14.00">Checkin</text>
<polyline fill="none" stroke="black" points="476.182,-92.5 609.193,-92.5 "/>
<text text-anchor="start" x="484.182" y="-77.3" font-family="Times,serif" font-size="14.00">id :integer</text>
<text text-anchor="start" x="484.182" y="-63.3" font-family="Times,serif" font-size="14.00">created_at :datetime</text>
<text text-anchor="start" x="484.182" y="-49.3" font-family="Times,serif" font-size="14.00">updated_at :datetime</text>
<text text-anchor="start" x="484.182" y="-35.3" font-family="Times,serif" font-size="14.00">student_id :integer</text>
<text text-anchor="start" x="484.182" y="-21.3" font-family="Times,serif" font-size="14.00">event_id :integer</text>
<text text-anchor="start" x="484.182" y="-7.3" font-family="Times,serif" font-size="14.00">user_id :integer</text>
</g>
<!-- Event -->
<g id="node5" class="node"><title>Event</title>
<path fill="none" stroke="black" d="M534.182,-628.5C534.182,-628.5 643.193,-628.5 643.193,-628.5 649.193,-628.5 655.193,-634.5 655.193,-640.5 655.193,-640.5 655.193,-772.5 655.193,-772.5 655.193,-778.5 649.193,-784.5 643.193,-784.5 643.193,-784.5 534.182,-784.5 534.182,-784.5 528.182,-784.5 522.182,-778.5 522.182,-772.5 522.182,-772.5 522.182,-640.5 522.182,-640.5 522.182,-634.5 528.182,-628.5 534.182,-628.5"/>
<text text-anchor="middle" x="588.688" y="-769.3" font-family="Times,serif" font-size="14.00">Event</text>
<polyline fill="none" stroke="black" points="522.182,-762.5 655.193,-762.5 "/>
<text text-anchor="start" x="530.182" y="-747.3" font-family="Times,serif" font-size="14.00">id :integer</text>
<text text-anchor="start" x="530.182" y="-733.3" font-family="Times,serif" font-size="14.00">name :string</text>
<text text-anchor="start" x="530.182" y="-719.3" font-family="Times,serif" font-size="14.00">year :integer</text>
<text text-anchor="start" x="530.182" y="-705.3" font-family="Times,serif" font-size="14.00">term :string</text>
<text text-anchor="start" x="530.182" y="-691.3" font-family="Times,serif" font-size="14.00">date :date</text>
<text text-anchor="start" x="530.182" y="-677.3" font-family="Times,serif" font-size="14.00">location :string</text>
<text text-anchor="start" x="530.182" y="-663.3" font-family="Times,serif" font-size="14.00">time :string</text>
<text text-anchor="start" x="530.182" y="-649.3" font-family="Times,serif" font-size="14.00">created_at :datetime</text>
<text text-anchor="start" x="530.182" y="-635.3" font-family="Times,serif" font-size="14.00">updated_at :datetime</text>
</g>
<!-- Event&#45;&gt;Checkin -->
<g id="edge1" class="edge"><title>Event&#45;&gt;Checkin</title>
<path fill="none" stroke="#7e914f" d="M536.858,-621.051C526.88,-600.775 517.916,-578.69 512.688,-557 476.192,-405.583 505.689,-221.2 526.532,-124.679"/>
<ellipse fill="none" stroke="#7e914f" cx="538.776" cy="-624.862" rx="4.00002" ry="4.00002"/>
<polygon fill="#7e914f" stroke="#7e914f" points="526.564,-124.534 533.105,-115.733 527.637,-119.651 528.709,-114.767 528.709,-114.767 528.709,-114.767 527.637,-119.651 524.314,-113.802 526.564,-124.534 526.564,-124.534"/>
</g>
<!-- Student -->
<g id="node6" class="node"><title>Student</title>
<path fill="none" stroke="black" d="M534.182,-414.5C534.182,-414.5 643.193,-414.5 643.193,-414.5 649.193,-414.5 655.193,-420.5 655.193,-426.5 655.193,-426.5 655.193,-544.5 655.193,-544.5 655.193,-550.5 649.193,-556.5 643.193,-556.5 643.193,-556.5 534.182,-556.5 534.182,-556.5 528.182,-556.5 522.182,-550.5 522.182,-544.5 522.182,-544.5 522.182,-426.5 522.182,-426.5 522.182,-420.5 528.182,-414.5 534.182,-414.5"/>
<text text-anchor="middle" x="588.688" y="-541.3" font-family="Times,serif" font-size="14.00">Student</text>
<polyline fill="none" stroke="black" points="522.182,-534.5 655.193,-534.5 "/>
<text text-anchor="start" x="530.182" y="-519.3" font-family="Times,serif" font-size="14.00">id :integer</text>
<text text-anchor="start" x="530.182" y="-505.3" font-family="Times,serif" font-size="14.00">uin :integer</text>
<text text-anchor="start" x="530.182" y="-491.3" font-family="Times,serif" font-size="14.00">fname :string</text>
<text text-anchor="start" x="530.182" y="-477.3" font-family="Times,serif" font-size="14.00">lname :string</text>
<text text-anchor="start" x="530.182" y="-463.3" font-family="Times,serif" font-size="14.00">card :string</text>
<text text-anchor="start" x="530.182" y="-449.3" font-family="Times,serif" font-size="14.00">email :string</text>
<text text-anchor="start" x="530.182" y="-435.3" font-family="Times,serif" font-size="14.00">created_at :datetime</text>
<text text-anchor="start" x="530.182" y="-421.3" font-family="Times,serif" font-size="14.00">updated_at :datetime</text>
</g>
<!-- Event&#45;&gt;Student -->
<g id="edge2" class="edge"><title>Event&#45;&gt;Student</title>
<path fill="none" stroke="#85ba66" d="M588.688,-618.077C588.688,-601.221 588.688,-583.637 588.688,-567.013"/>
<polygon fill="#85ba66" stroke="#85ba66" points="588.688,-618.289 584.188,-628.289 588.688,-623.289 588.688,-628.289 588.688,-628.289 588.688,-628.289 588.688,-623.289 593.188,-628.289 588.688,-618.289 588.688,-618.289"/>
<polygon fill="#85ba66" stroke="#85ba66" points="588.688,-566.802 593.188,-556.801 588.688,-561.802 588.688,-556.802 588.688,-556.802 588.688,-556.802 588.688,-561.802 584.188,-556.802 588.688,-566.802 588.688,-566.802"/>
</g>
<!-- User -->
<g id="node7" class="node"><title>User</title>
<path fill="none" stroke="black" d="M582.41,-151.5C582.41,-151.5 762.966,-151.5 762.966,-151.5 768.966,-151.5 774.966,-157.5 774.966,-163.5 774.966,-163.5 774.966,-365.5 774.966,-365.5 774.966,-371.5 768.966,-377.5 762.966,-377.5 762.966,-377.5 582.41,-377.5 582.41,-377.5 576.41,-377.5 570.41,-371.5 570.41,-365.5 570.41,-365.5 570.41,-163.5 570.41,-163.5 570.41,-157.5 576.41,-151.5 582.41,-151.5"/>
<text text-anchor="middle" x="672.688" y="-362.3" font-family="Times,serif" font-size="14.00">User</text>
<polyline fill="none" stroke="black" points="570.41,-355.5 774.966,-355.5 "/>
<text text-anchor="start" x="578.41" y="-340.3" font-family="Times,serif" font-size="14.00">id :integer</text>
<text text-anchor="start" x="578.41" y="-326.3" font-family="Times,serif" font-size="14.00">email :string</text>
<text text-anchor="start" x="578.41" y="-312.3" font-family="Times,serif" font-size="14.00">encrypted_password :string</text>
<text text-anchor="start" x="578.41" y="-298.3" font-family="Times,serif" font-size="14.00">reset_password_token :string</text>
<text text-anchor="start" x="578.41" y="-284.3" font-family="Times,serif" font-size="14.00">reset_password_sent_at :datetime</text>
<text text-anchor="start" x="578.41" y="-270.3" font-family="Times,serif" font-size="14.00">remember_created_at :datetime</text>
<text text-anchor="start" x="578.41" y="-256.3" font-family="Times,serif" font-size="14.00">sign_in_count :integer</text>
<text text-anchor="start" x="578.41" y="-242.3" font-family="Times,serif" font-size="14.00">current_sign_in_at :datetime</text>
<text text-anchor="start" x="578.41" y="-228.3" font-family="Times,serif" font-size="14.00">last_sign_in_at :datetime</text>
<text text-anchor="start" x="578.41" y="-214.3" font-family="Times,serif" font-size="14.00">current_sign_in_ip :string</text>
<text text-anchor="start" x="578.41" y="-200.3" font-family="Times,serif" font-size="14.00">last_sign_in_ip :string</text>
<text text-anchor="start" x="578.41" y="-186.3" font-family="Times,serif" font-size="14.00">created_at :datetime</text>
<text text-anchor="start" x="578.41" y="-172.3" font-family="Times,serif" font-size="14.00">updated_at :datetime</text>
<text text-anchor="start" x="578.41" y="-158.3" font-family="Times,serif" font-size="14.00">username :string</text>
</g>
<!-- Event&#45;&gt;User -->
<g id="edge3" class="edge"><title>Event&#45;&gt;User</title>
<path fill="none" stroke="#871a3c" d="M640.869,-619.339C650.556,-599.511 659.308,-578.048 664.688,-557 678.585,-502.626 681.947,-440.682 681.291,-387.921"/>
<polygon fill="#871a3c" stroke="#871a3c" points="640.845,-619.388 632.339,-626.309 638.603,-623.857 636.362,-628.326 636.362,-628.326 636.362,-628.326 638.603,-623.857 640.384,-630.344 640.845,-619.388 640.845,-619.388"/>
<polygon fill="#871a3c" stroke="#871a3c" points="681.29,-387.837 685.616,-377.76 681.203,-382.838 681.116,-377.839 681.116,-377.839 681.116,-377.839 681.203,-382.838 676.617,-377.917 681.29,-387.837 681.29,-387.837"/>
</g>
<!-- Student&#45;&gt;Checkin -->
<g id="edge4" class="edge"><title>Student&#45;&gt;Checkin</title>
<path fill="none" stroke="#1c9309" d="M567.114,-406.455C565.01,-396.924 563.126,-387.277 561.688,-378 548.21,-291.086 544.135,-189.509 542.988,-124.627"/>
<ellipse fill="none" stroke="#1c9309" cx="568.04" cy="-410.523" rx="4.00001" ry="4.00001"/>
<polygon fill="#1c9309" stroke="#1c9309" points="542.987,-124.535 547.328,-114.465 542.908,-119.536 542.828,-114.536 542.828,-114.536 542.828,-114.536 542.908,-119.536 538.329,-114.608 542.987,-124.535 542.987,-124.535"/>
</g>
<!-- Student&#45;&gt;User -->
<g id="edge5" class="edge"><title>Student&#45;&gt;User</title>
<path fill="none" stroke="#0507fb" d="M619.259,-404.796C621.493,-398.972 623.773,-393.027 626.073,-387.032"/>
<polygon fill="#0507fb" stroke="#0507fb" points="619.194,-404.967 611.411,-412.692 617.403,-409.635 615.612,-414.303 615.612,-414.303 615.612,-414.303 617.403,-409.635 619.814,-415.915 619.194,-404.967 619.194,-404.967"/>
<polygon fill="#0507fb" stroke="#0507fb" points="626.116,-386.919 633.899,-379.194 627.907,-382.251 629.697,-377.582 629.697,-377.582 629.697,-377.582 627.907,-382.251 625.496,-375.971 626.116,-386.919 626.116,-386.919"/>
</g>
<!-- User&#45;&gt;Checkin -->
<g id="edge6" class="edge"><title>User&#45;&gt;Checkin</title>
<path fill="none" stroke="#3c2c80" d="M597.271,-144.574C592.657,-137.298 588.114,-130.134 583.74,-123.237"/>
<ellipse fill="none" stroke="#3c2c80" cx="599.46" cy="-148.025" rx="4.00002" ry="4.00002"/>
<polygon fill="#3c2c80" stroke="#3c2c80" points="583.652,-123.098 582.097,-112.243 580.974,-118.875 578.297,-114.653 578.297,-114.653 578.297,-114.653 580.974,-118.875 574.496,-117.063 583.652,-123.098 583.652,-123.098"/>
</g>
</g>
</svg>
