<?xml version="1.0" encoding="UTF-8" standalone="no"?>
<!DOCTYPE svg PUBLIC "-//W3C//DTD SVG 1.1//EN"
 "http://www.w3.org/Graphics/SVG/1.1/DTD/svg11.dtd">
<!-- Generated by graphviz version 2.38.0 (20140413.2041)
 -->
<!-- Title: models_diagram Pages: 1 -->
<svg width="602pt" height="225pt"
 viewBox="0.00 0.00 601.69 225.00" xmlns="http://www.w3.org/2000/svg" xmlns:xlink="http://www.w3.org/1999/xlink">
<g id="graph0" class="graph" transform="scale(1 1) rotate(0) translate(4 221)">
<title>models_diagram</title>
<polygon fill="white" stroke="none" points="-4,4 -4,-221 597.688,-221 597.688,4 -4,4"/>
<!-- _diagram_info -->
<g id="node1" class="node"><title>_diagram_info</title>
<text text-anchor="start" x="8" y="-202.6" font-family="Times,serif" font-size="13.00">Models diagram</text>
<text text-anchor="start" x="8" y="-189.6" font-family="Times,serif" font-size="13.00">Date: May 05 2015 &#45; 20:47</text>
<text text-anchor="start" x="8" y="-176.6" font-family="Times,serif" font-size="13.00">Migration version: 20150502162746</text>
<text text-anchor="start" x="8" y="-163.6" font-family="Times,serif" font-size="13.00">Generated by RailRoady 1.3.0</text>
<text text-anchor="start" x="8" y="-150.6" font-family="Times,serif" font-size="13.00">http://railroady.prestonlee.com</text>
</g>
<!-- Ability -->
<g id="node2" class="node"><title>Ability</title>
<polygon fill="none" stroke="black" points="281.358,-198.5 226.018,-198.5 226.018,-162.5 281.358,-162.5 281.358,-198.5"/>
<text text-anchor="middle" x="253.688" y="-176.3" font-family="Times,serif" font-size="14.00">Ability</text>
</g>
<!-- Admin -->
<g id="node3" class="node"><title>Admin</title>
<ellipse fill="none" stroke="black" cx="334.688" cy="-180.5" rx="34.8458" ry="18"/>
<text text-anchor="middle" x="334.688" y="-176.3" font-family="Times,serif" font-size="14.00">Admin</text>
</g>
<!-- Card -->
<g id="node4" class="node"><title>Card</title>
<ellipse fill="none" stroke="black" cx="414.688" cy="-180.5" rx="27.0958" ry="18"/>
<text text-anchor="middle" x="414.688" y="-176.3" font-family="Times,serif" font-size="14.00">Card</text>
</g>
<!-- Checkin -->
<g id="node5" class="node"><title>Checkin</title>
<ellipse fill="none" stroke="black" cx="489.688" cy="-18" rx="39.6558" ry="18"/>
<text text-anchor="middle" x="489.688" y="-13.8" font-family="Times,serif" font-size="14.00">Checkin</text>
</g>
<!-- Event -->
<g id="node6" class="node"><title>Event</title>
<ellipse fill="none" stroke="black" cx="490.688" cy="-180.5" rx="30.9706" ry="18"/>
<text text-anchor="middle" x="490.688" y="-176.3" font-family="Times,serif" font-size="14.00">Event</text>
</g>
<!-- Event&#45;&gt;Checkin -->
<g id="edge1" class="edge"><title>Event&#45;&gt;Checkin</title>
<path fill="none" stroke="#9b2f3a" d="M483.897,-154.592C478.807,-132.815 473.264,-100.332 476.688,-72 477.727,-63.4026 479.681,-54.1878 481.765,-45.8926"/>
<ellipse fill="none" stroke="#9b2f3a" cx="484.854" cy="-158.498" rx="4.00001" ry="4.00001"/>
<polygon fill="#9b2f3a" stroke="#9b2f3a" points="481.829,-45.6528 488.761,-37.156 483.121,-40.8228 484.414,-35.9927 484.414,-35.9927 484.414,-35.9927 483.121,-40.8228 480.067,-34.8294 481.829,-45.6528 481.829,-45.6528"/>
</g>
<!-- Student -->
<g id="node7" class="node"><title>Student</title>
<ellipse fill="none" stroke="black" cx="522.688" cy="-90" rx="37.2594" ry="18"/>
<text text-anchor="middle" x="522.688" y="-85.8" font-family="Times,serif" font-size="14.00">Student</text>
</g>
<!-- Event&#45;&gt;Student -->
<g id="edge2" class="edge"><title>Event&#45;&gt;Student</title>
<path fill="none" stroke="#bdb1f5" d="M500.293,-152.936C504.327,-141.78 509.01,-128.828 513.047,-117.662"/>
<polygon fill="#bdb1f5" stroke="#bdb1f5" points="500.258,-153.032 492.626,-160.906 498.558,-157.734 496.858,-162.436 496.858,-162.436 496.858,-162.436 498.558,-157.734 501.09,-163.967 500.258,-153.032 500.258,-153.032"/>
<polygon fill="#bdb1f5" stroke="#bdb1f5" points="513.136,-117.415 520.769,-109.541 514.837,-112.713 516.537,-108.011 516.537,-108.011 516.537,-108.011 514.837,-112.713 512.305,-106.481 513.136,-117.415 513.136,-117.415"/>
</g>
<!-- Student&#45;&gt;Checkin -->
<g id="edge3" class="edge"><title>Student&#45;&gt;Checkin</title>
<path fill="none" stroke="#f9f3e0" d="M511.239,-64.7144C508.216,-58.3016 504.942,-51.3577 501.881,-44.8648"/>
<ellipse fill="none" stroke="#f9f3e0" cx="512.994" cy="-68.4368" rx="4.00002" ry="4.00002"/>
<polygon fill="#f9f3e0" stroke="#f9f3e0" points="501.867,-44.8343 501.673,-33.8701 499.735,-40.3116 497.603,-35.789 497.603,-35.789 497.603,-35.789 499.735,-40.3116 493.532,-37.7079 501.867,-44.8343 501.867,-44.8343"/>
</g>
<!-- User -->
<g id="node8" class="node"><title>User</title>
<ellipse fill="none" stroke="black" cx="566.688" cy="-180.5" rx="27" ry="18"/>
<text text-anchor="middle" x="566.688" y="-176.3" font-family="Times,serif" font-size="14.00">User</text>
</g>
</g>
</svg>
