<?xml version="1.0" encoding="UTF-8" standalone="no"?>
<!DOCTYPE svg PUBLIC "-//W3C//DTD SVG 1.1//EN"
 "http://www.w3.org/Graphics/SVG/1.1/DTD/svg11.dtd">
<!-- Generated by graphviz version 2.38.0 (20140413.2041)
 -->
<!-- Title: models_diagram Pages: 1 -->
<svg width="567pt" height="297pt"
 viewBox="0.00 0.00 566.69 297.00" xmlns="http://www.w3.org/2000/svg" xmlns:xlink="http://www.w3.org/1999/xlink">
<g id="graph0" class="graph" transform="scale(1 1) rotate(0) translate(4 293)">
<title>models_diagram</title>
<polygon fill="white" stroke="none" points="-4,4 -4,-293 562.688,-293 562.688,4 -4,4"/>
<!-- _diagram_info -->
<g id="node1" class="node"><title>_diagram_info</title>
<text text-anchor="start" x="8" y="-274.6" font-family="Times,serif" font-size="13.00">Models diagram</text>
<text text-anchor="start" x="8" y="-261.6" font-family="Times,serif" font-size="13.00">Date: Apr 15 2015 &#45; 16:44</text>
<text text-anchor="start" x="8" y="-248.6" font-family="Times,serif" font-size="13.00">Migration version: 20150402210808</text>
<text text-anchor="start" x="8" y="-235.6" font-family="Times,serif" font-size="13.00">Generated by RailRoady 1.3.0</text>
<text text-anchor="start" x="8" y="-222.6" font-family="Times,serif" font-size="13.00">http://railroady.prestonlee.com</text>
</g>
<!-- Ability -->
<g id="node2" class="node"><title>Ability</title>
<polygon fill="none" stroke="black" points="281.358,-270.5 226.018,-270.5 226.018,-234.5 281.358,-234.5 281.358,-270.5"/>
<text text-anchor="middle" x="253.688" y="-248.3" font-family="Times,serif" font-size="14.00">Ability</text>
</g>
<!-- Admin -->
<g id="node3" class="node"><title>Admin</title>
<ellipse fill="none" stroke="black" cx="334.688" cy="-252.5" rx="34.8458" ry="18"/>
<text text-anchor="middle" x="334.688" y="-248.3" font-family="Times,serif" font-size="14.00">Admin</text>
</g>
<!-- Card -->
<g id="node4" class="node"><title>Card</title>
<ellipse fill="none" stroke="black" cx="414.688" cy="-252.5" rx="27.0958" ry="18"/>
<text text-anchor="middle" x="414.688" y="-248.3" font-family="Times,serif" font-size="14.00">Card</text>
</g>
<!-- Checkin -->
<g id="node5" class="node"><title>Checkin</title>
<ellipse fill="none" stroke="black" cx="476.688" cy="-18" rx="39.6558" ry="18"/>
<text text-anchor="middle" x="476.688" y="-13.8" font-family="Times,serif" font-size="14.00">Checkin</text>
</g>
<!-- Event -->
<g id="node6" class="node"><title>Event</title>
<ellipse fill="none" stroke="black" cx="490.688" cy="-252.5" rx="30.9706" ry="18"/>
<text text-anchor="middle" x="490.688" y="-248.3" font-family="Times,serif" font-size="14.00">Event</text>
</g>
<!-- Event&#45;&gt;Checkin -->
<g id="edge1" class="edge"><title>Event&#45;&gt;Checkin</title>
<path fill="none" stroke="#1623e9" d="M471.823,-229.528C461.62,-216.165 450.039,-198.209 444.688,-180 430.924,-133.169 449.903,-76.9321 463.972,-44.8399"/>
<ellipse fill="none" stroke="#1623e9" cx="474.513" cy="-232.935" rx="4.00002" ry="4.00002"/>
<polygon fill="#1623e9" stroke="#1623e9" points="463.993,-44.7929 472.234,-37.558 466.066,-40.2427 468.139,-35.6926 468.139,-35.6926 468.139,-35.6926 466.066,-40.2427 464.043,-33.8271 463.993,-44.7929 463.993,-44.7929"/>
</g>
<!-- Student -->
<g id="node7" class="node"><title>Student</title>
<ellipse fill="none" stroke="black" cx="490.688" cy="-162" rx="37.2594" ry="18"/>
<text text-anchor="middle" x="490.688" y="-157.8" font-family="Times,serif" font-size="14.00">Student</text>
</g>
<!-- Event&#45;&gt;Student -->
<g id="edge2" class="edge"><title>Event&#45;&gt;Student</title>
<path fill="none" stroke="#f4e80a" d="M490.688,-224.092C490.688,-213.289 490.688,-200.912 490.688,-190.136"/>
<polygon fill="#f4e80a" stroke="#f4e80a" points="490.688,-224.436 486.188,-234.436 490.688,-229.436 490.688,-234.436 490.688,-234.436 490.688,-234.436 490.688,-229.436 495.188,-234.436 490.688,-224.436 490.688,-224.436"/>
<polygon fill="#f4e80a" stroke="#f4e80a" points="490.688,-190.011 495.188,-180.011 490.688,-185.011 490.688,-180.011 490.688,-180.011 490.688,-180.011 490.688,-185.011 486.188,-180.011 490.688,-190.011 490.688,-190.011"/>
</g>
<!-- User -->
<g id="node8" class="node"><title>User</title>
<ellipse fill="none" stroke="black" cx="531.688" cy="-90" rx="27" ry="18"/>
<text text-anchor="middle" x="531.688" y="-85.8" font-family="Times,serif" font-size="14.00">User</text>
</g>
<!-- Event&#45;&gt;User -->
<g id="edge3" class="edge"><title>Event&#45;&gt;User</title>
<path fill="none" stroke="#f0da1a" d="M510.681,-228.038C520.597,-214.847 531.532,-197.541 536.688,-180 542.642,-159.74 540.828,-135.792 537.836,-117.844"/>
<polygon fill="#f0da1a" stroke="#f0da1a" points="510.552,-228.203 500.842,-233.298 507.468,-232.139 504.384,-236.074 504.384,-236.074 504.384,-236.074 507.468,-232.139 507.925,-238.85 510.552,-228.203 510.552,-228.203"/>
<polygon fill="#f0da1a" stroke="#f0da1a" points="537.792,-117.613 540.355,-106.951 536.863,-112.7 535.934,-107.787 535.934,-107.787 535.934,-107.787 536.863,-112.7 531.512,-108.623 537.792,-117.613 537.792,-117.613"/>
</g>
<!-- Student&#45;&gt;Checkin -->
<g id="edge4" class="edge"><title>Student&#45;&gt;Checkin</title>
<path fill="none" stroke="#3cb0b0" d="M488.179,-135.558C485.703,-110.444 481.929,-72.164 479.388,-46.3932"/>
<ellipse fill="none" stroke="#3cb0b0" cx="488.607" cy="-139.891" rx="4" ry="4"/>
<polygon fill="#3cb0b0" stroke="#3cb0b0" points="479.364,-46.141 482.861,-35.7477 478.873,-41.1651 478.382,-36.1893 478.382,-36.1893 478.382,-36.1893 478.873,-41.1651 473.904,-36.6308 479.364,-46.141 479.364,-46.141"/>
</g>
<!-- Student&#45;&gt;User -->
<g id="edge5" class="edge"><title>Student&#45;&gt;User</title>
<path fill="none" stroke="#b68260" d="M505.531,-135.658C509.298,-129.227 513.341,-122.323 517.095,-115.914"/>
<polygon fill="#b68260" stroke="#b68260" points="505.458,-135.782 496.521,-142.137 502.931,-140.097 500.404,-144.411 500.404,-144.411 500.404,-144.411 502.931,-140.097 504.287,-146.685 505.458,-135.782 505.458,-135.782"/>
<polygon fill="#b68260" stroke="#b68260" points="517.269,-115.617 526.206,-109.262 519.796,-111.303 522.323,-106.988 522.323,-106.988 522.323,-106.988 519.796,-111.303 518.44,-104.714 517.269,-115.617 517.269,-115.617"/>
</g>
<!-- User&#45;&gt;Checkin -->
<g id="edge6" class="edge"><title>User&#45;&gt;Checkin</title>
<path fill="none" stroke="#73c9c8" d="M514.635,-67.2961C508.641,-59.6673 501.869,-51.0486 495.722,-43.2255"/>
<ellipse fill="none" stroke="#73c9c8" cx="517.282" cy="-70.6658" rx="4.00002" ry="4.00002"/>
<polygon fill="#73c9c8" stroke="#73c9c8" points="495.542,-42.9968 492.903,-32.3534 492.453,-39.0652 489.364,-35.1336 489.364,-35.1336 489.364,-35.1336 492.453,-39.0652 485.826,-37.9138 495.542,-42.9968 495.542,-42.9968"/>
</g>
</g>
</svg>
